<svg xmlns="http://www.w3.org/2000/svg" width="35" height="35" fill="none"><path fill="#2C71B3" d="M17.2 34.4a17.2 17.2 0 1 0 0-34.4 17.2 17.2 0 0 0 0 34.4Z"/><path fill="#fff" d="M12.06 11.73V5.55a.29.29 0 0 0-.58 0v6.18h-.9V5.55a.29.29 0 0 0-.58 0v6.18h-.85V5.55a.29.29 0 0 0-.58 0v6.18h-.98V5.55a.29.29 0 0 0-.58 0V11.74c0 .07.03.13.07.18.21.51.9 1.9 2.12 2.23l-.05 1.1-.09 2.04c-.05 1.36-.1 2.72-.13 4.08-.03 1.36-.07 2.72-.08 4.08 0 1.36 0 2.72.09 4.08a.62.62 0 0 0 1.23 0c.08-1.36.1-2.72.09-4.08-.01-1.36-.05-2.72-.08-4.08l-.13-4.08-.09-2.04-.05-1.03c1.71-.12 2.16-2.49 2.16-2.49h-.01ZM17.73 14.53c1.8 0 3.27-2.12 3.27-4.74s-1.46-4.74-3.27-4.74c-1.8 0-3.27 2.12-3.27 4.74s1.46 4.74 3.27 4.74Z"/><path fill="#fff" d="M18.02 12.47c.09 1.42.16 2.85.23 4.27l.09 2.14.08 2.14.12 4.27c.02 1.42.02 2.85-.03 4.27a.78.78 0 0 1-.8.74.78.78 0 0 1-.74-.74 76 76 0 0 1-.03-4.27c.02-1.42.07-2.85.12-4.27l.08-2.14.09-2.14c.07-1.42.14-2.85.23-4.27a.3.3 0 0 1 .31-.27c.15 0 .26.13.27.27h-.02ZM26.81 12.36c.1 1.42.18 2.85.24 4.27l.09 2.14.07 2.14c.04 1.42.09 2.85.1 4.27 0 1.42 0 2.85-.1 4.27a.7.7 0 0 1-1.39 0 67.6 67.6 0 0 1-.1-4.27c.01-1.42.06-2.85.1-4.27l.07-2.14.09-2.14c.07-1.42.14-2.85.24-4.27a.3.3 0 0 1 .58 0h.01Z"/><path fill="#fff" d="M25.98 18.62c-1-1.32-1.64-3.88-1.64-4.99 0-1.11.96-6.67 1.28-7.38.32-.71.56-1.02.89-.99.33.03.64.46.68 1.21.04.75 0 12.51 0 12.51l.02 1.35-1.23-1.71Z"/><path stroke="#fff" stroke-miterlimit="10" stroke-width=".49" d="M17.2 33.41a16.21 16.21 0 1 0 0-32.42 16.21 16.21 0 0 0 0 32.42Z"/></svg>
