<svg xmlns="http://www.w3.org/2000/svg" width="52" height="28" fill="none"><path fill="#0028EB" d="M26.79 0H52v28H26.79zM0 0h25.21v28H0z"/><path fill="#fff" d="M4.9 24.78V6.47h3.66l3.25 8.96c.2.57.4 1.17.59 1.79.2.6.4 1.2.58 1.79h.12c.2-.6.4-1.2.58-1.8.2-.6.38-1.2.56-1.78l3.17-8.96h3.7v18.3h-3v-8.36c0-.58.02-1.2.05-1.88l.17-2.07.2-1.88h-.11l-1.49 4.26-3 8.23H12l-3.02-8.23-1.46-4.26h-.1a101.24 101.24 0 0 1 .33 3.95c.05.67.08 1.3.08 1.88v8.37H4.9ZM27.79 24.78l5.43-9.66-1.73-3.95a4.01 4.01 0 0 0-1.1-1.6 1.91 1.91 0 0 0-1.45-.33c-.13 0-.27.03-.42.08l-.53-2.97c.16-.09.36-.15.58-.16a4.44 4.44 0 0 1 3.14.64c.73.45 1.4 1.33 2.02 2.66l2.07 4.42h2.04V6.47h3.1v7.44H43l2.05-4.42c.63-1.33 1.3-2.21 2.01-2.66a4.52 4.52 0 0 1 3.76-.48l-.56 2.97a.99.99 0 0 0-.4-.08 2 2 0 0 0-1.48.34c-.34.22-.7.75-1.06 1.59l-1.77 3.95L51 24.78h-3.53l-4.28-8.23h-2.24v8.23h-3.1v-8.23H35.6l-4.28 8.23h-3.53Z"/></svg>
