<svg xmlns="http://www.w3.org/2000/svg" width="32" height="38" fill="none"><path fill="#4E360D" d="M4.4 34.58h-.78a.64.64 0 0 0-.64.64v1.74c0 .35.29.64.64.64h.78c.35 0 .64-.29.64-.64v-1.74a.64.64 0 0 0-.64-.64ZM28.96 34.58h-.78a.64.64 0 0 0-.64.64v1.74c0 .35.29.64.64.64h.78c.35 0 .64-.29.64-.64v-1.74a.64.64 0 0 0-.64-.64Z"/><path fill="#8C6520" stroke="#4E360D" stroke-miterlimit="10" stroke-width=".26" d="M21.47 18.69V1H11.24v17.69H1v16.77h30.71V18.69H21.47Z"/><path fill="#8C6520" stroke="#4E360D" stroke-miterlimit="10" stroke-width=".26" d="M21.47 1H11.24v1.87h10.23V1ZM21.47 2.87H11.24v1.87h10.23V2.87ZM21.47 4.74H11.24v1.87h10.23V4.74Z"/><path fill="#8C6520" stroke="#4E360D" stroke-miterlimit="10" stroke-width=".26" d="M21.47 6.59H11.24v1.87h10.23V6.59ZM21.47 10.17H11.24v1.87h10.23v-1.87ZM21.47 12.04H11.24v1.87h10.23v-1.87ZM21.47 13.91H11.24v1.87h10.23v-1.87Z"/><path fill="#8C6520" stroke="#4E360D" stroke-miterlimit="10" stroke-width=".26" d="M21.47 15.76H11.24v1.87h10.23v-1.87Z"/><path stroke="#4E360D" stroke-miterlimit="10" stroke-width=".26" d="M11.24 18.69h10.23"/><path fill="#8C6520" stroke="#4E360D" stroke-miterlimit="10" stroke-width=".26" d="M31.71 18.69H1v1.77h30.71v-1.77Z"/><path fill="#8C6520" stroke="#4E360D" stroke-miterlimit="10" stroke-width=".26" d="M31.71 20.45H1v1.77h30.71v-1.77ZM31.71 22.22H1v1.77h30.71v-1.77ZM31.71 23.99H1v1.77h30.71v-1.77Z"/><path fill="#8C6520" stroke="#4E360D" stroke-miterlimit="10" stroke-width=".26" d="M31.71 25.75H1v1.77h30.71v-1.77ZM31.71 27.52H1v1.77h30.71v-1.77Z"/><path fill="#8C6520" stroke="#4E360D" stroke-miterlimit="10" stroke-width=".26" d="M31.71 29.28H1v1.77h30.71v-1.77ZM31.71 31.05H1v1.77h30.71v-1.77Z"/><path fill="#8C6520" stroke="#4E360D" stroke-miterlimit="10" stroke-width=".26" d="M31.71 32.81H1v1.77h30.71v-1.77Z"/></svg>
