<svg xmlns="http://www.w3.org/2000/svg" width="47" height="31" fill="none"><path fill="#B6503A" d="M17.4 1.22h-3.54a.07.07 0 0 0-.07.07v4.49c0 .04.03.06.07.06h3.54c.03 0 .06-.02.06-.06v-4.5a.07.07 0 0 0-.06-.06Z"/><path fill="#6F3022" d="M17.39 1.3v4.49h-3.53v-4.5h3.53Zm0-.13h-3.53a.13.13 0 0 0-.13.13v4.49c0 .07.05.13.13.13h3.53c.07 0 .13-.06.13-.13v-4.5a.13.13 0 0 0-.13-.12Z"/><path fill="#B6503A" d="M17.89.07H13.1a.07.07 0 0 0-.06.06v1.33c0 .04.03.06.06.06h4.79c.03 0 .06-.02.06-.06V.13a.07.07 0 0 0-.06-.06Z"/><path fill="#6F3022" d="M17.89.13v1.33H13.1V.13h4.78Zm0-.13H13.1a.13.13 0 0 0-.13.13v1.33c0 .07.06.13.13.13h4.78c.07 0 .13-.06.13-.13V.13a.13.13 0 0 0-.13-.13Z"/><path stroke="#D79F74" stroke-miterlimit="10" stroke-width=".14" d="M13.86 1.9h3.53M13.86 2.75h3.53M13.86 3.45h3.53M13.86 4.2h3.53M13.86 4.92h3.53M14.53 1.9v.85M16.36 1.9v.88M15.3 2.75v.7M17.04 2.75v.7M14.48 3.45v.76M16.45 3.42v.79M15.1 4.2v.72M16.97 4.2v.72M13.18.8h4.7M13.97.13v.63M15.04.8v.66M16.3.13v.63M17.2.8v.66"/><path fill="#B99E59" stroke="#886D22" stroke-miterlimit="10" stroke-width=".21" d="M44.76 15.46H2.13v13.59h42.63V15.46Z"/><path fill="#B6503A" stroke="#6F3022" stroke-linejoin="round" stroke-width=".14" d="M1 15.81 6.34 3.95h34.23L46 15.62s-.1.63-.76.64c-.67.01-1.24-.4-1.24-.4s-.33.42-1.02.4c-.69-.01-1.22-.41-1.22-.41s-.25.42-.97.41c-.73 0-1.2-.4-1.2-.4s-.4.4-1.06.4c-.67.01-1.02-.34-1.02-.34s-.2.36-1 .34c-.8-.01-1.12-.36-1.12-.36s-.54.41-1.38.36C33.17 16.22 11.9 16 11.9 16s-.64.3-1.22.26c-.59-.02-1.25-.34-1.25-.34s-.34.35-1.06.34c-.72 0-1.12-.34-1.12-.34s-.3.34-1.04.34-1.01-.4-1.01-.4-.4.41-1.18.4c-.77 0-.97-.33-.97-.33s-.58.27-1.16.25c-.57-.02-.85-.39-.85-.39l-.04.02Z"/><path stroke="#6F3022" stroke-linejoin="round" stroke-width=".14" d="M9.34 9.79s.02.42.64.46c.62.04 1.14-.46 1.14-.46s.22.35.75.33c.53-.02 1.26-.33 1.26-.33M13.83 6.55s.02.42.64.46c.62.04 1.14-.46 1.14-.46s.22.35.75.33c.53-.02 1.26-.33 1.26-.33M4.4 8.25s-.01.17.67.2c.67.03.94-.2.94-.2s.12.3.68.33c.55.03 1.1-.33 1.1-.33s.09.35.74.33c.65-.01 1.27-.33 1.27-.33M10.06 13.74s-.41.43-1.02.42c-.61-.01-.94-.42-.94-.42s-.45.48-1.18.47c-.73 0-.87-.52-.87-.52s-.6.5-1.29.48c-.67-.02-.86-.54-.86-.54s-.4.66-1.07.58c-.67-.07-.86-.58-.86-.58M15.93 4.98c0 .05.11.38.65.38.53 0 .98-.3.98-.3s.28.3.71.3c.43-.01.9-.35.9-.35s.4.41.82.4c.44-.03.82-.38.82-.38M38.86 7.89s-.25.54-.8.6c-.54.06-.84-.52-.84-.52s-.4.5-.95.52a1.8 1.8 0 0 1-1.04-.38s-.22.36-.9.38c-.66.02-.9-.38-.9-.38M44.96 13.41s-.05.81-.73.8c-.68 0-1.26-.45-1.26-.45s-.08.3-.62.31c-.55.02-1.36-.44-1.36-.44s-.32.49-.91.44c-.6-.05-1.29-.53-1.29-.53M29.39 5s.18.38.72.32c.55-.07.81-.32.81-.32s.37.3.83.32c.46 0 .93-.32.93-.32s.35.35.91.32c.57-.03.75-.32.75-.32M29.66 8.19s-.3.33-.83.3c-.53-.03-.91-.46-.91-.46s-.42.3-.82.29M37.74 9.8s.55.5 1.04.45a1 1 0 0 0 .72-.44s.52.35 1.1.3c.57-.03.47-.3.47-.3s.5.38 1.17.3c.67-.07.96-.46.96-.46M37.8 5s.32.37.88.33c.55-.05.71-.44.71-.44s.38.5.98.45c.6-.05.62-.45.62-.45M6.74 5.96s.02.42.64.46c.62.04 1.14-.46 1.14-.46s.23.35.75.33c.53-.02 1.26-.33 1.26-.33M7.29 9.79l-.98 3.37M10.74 10.88l-.44 2.38M12.67 4.64l-1 3.77M8.52 5.96l.57-1.65M3.92 13.63l.97-2.75M41.08 9.8l-.75-3.01M36.92 14.21l-.9-3.95"/><path stroke="#886D22" stroke-linejoin="round" stroke-width=".14" d="M2.13 17.18h42.63v1.87L2.13 18.7v1.67h42.63v1.53H2.13v1.4h42.63v1.77H2.13v1.25h42.63v1.4H2.13v1.35h42.63"/><path fill="#E2C57A" stroke="#886D22" stroke-linejoin="round" stroke-width=".21" d="M34.12 16.57H12.67V30.8h21.45V16.58Z"/><path stroke="#886D22" stroke-linejoin="round" stroke-width=".14" d="M12.67 17.55h21.45v1.88l-21.45-.35v1.66h21.45v1.54H12.67v1.4h21.45v1.77H12.67v1.24h21.45v1.4H12.67v1.35h21.45"/><path fill="#E2E2E3" stroke="#7A7A7A" stroke-linejoin="round" stroke-width=".22" d="M11.87 16.57v-.95l11.57-9.2L35 15.45v1.12H11.87Z"/><path fill="#E2C57A" stroke="#886D22" stroke-linejoin="round" stroke-width=".21" d="m23.4 7.56-11.53 9.01h23.14L23.39 7.56Z"/><path stroke="#886D22" stroke-linejoin="round" stroke-width=".1" d="M13.58 15.24v1.33h1.78V13.8l1.95-1.48v4.26h1.77v-5.64l1.9-1.49v7.13h1.47V8.3l.94-.73.99.76v8.25h1.68l.12-6.86 1.9 1.48v5.38h1.86l-.1-4 2.01 1.55v2.46h1.74v-1.1"/><path fill="#8D4132" stroke="#57271E" stroke-linejoin="round" stroke-width=".22" d="M11.87 15.62v-.93l11.57-9.03L35 14.43v1.02L23.44 6.42l-11.57 9.2Z"/><path fill="#A56533" stroke="#8D4133" stroke-linejoin="round" stroke-width=".1" d="M27.4 11.65h-7.96v4.16h7.96v-4.16Z"/><path stroke="#8D4133" stroke-linejoin="round" stroke-width=".1" d="M27.11 12.07h-7.23v3.4h7.23v-3.4Z"/><path fill="#568CBB" stroke="#8D4133" stroke-miterlimit="10" stroke-width=".1" d="M21.48 12.31h-1.34v2.96h1.34V12.3Z"/><path fill="#65A6DF" stroke="#8D4133" stroke-miterlimit="10" stroke-width=".1" d="M26.85 12.31H25.5v2.96h1.34V12.3Z"/><path fill="#49211A" stroke="#8D4133" stroke-miterlimit="10" stroke-width=".1" d="M24.62 12.22h-2.35v3.05h2.35v-3.05Z"/><path stroke="#8D4133" stroke-linejoin="round" stroke-width=".1" d="M21.87 12.22v3.05M25 12.22v3.05"/><path fill="#A56533" stroke="#8D4133" stroke-linejoin="round" stroke-width=".11" d="M18.11 21.18h-4.3v4.72h4.3v-4.72Z"/><path fill="#568CBB" stroke="#8D4133" stroke-miterlimit="10" stroke-width=".1" d="M15.65 21.7h-1.47v3.75h1.47V21.7Z"/><path fill="#65A6DF" stroke="#8D4133" stroke-miterlimit="10" stroke-width=".1" d="M17.76 21.7H16.4v3.75h1.36V21.7Z"/><path stroke="#8D4133" stroke-linejoin="round" stroke-width=".1" d="M16.03 21.6v3.96"/><path fill="#A56533" stroke="#8D4133" stroke-linejoin="round" stroke-width=".1" d="M26.23 20.7h-6.09v10.04h6.09V20.7Z"/><path fill="#BA723A" d="M25.52 21.67h-4.49v9.08h4.49v-9.08Z"/><path stroke="#8D4133" stroke-linejoin="round" stroke-width=".1" d="M20.62 29.99v-8.6h5.2v8.6"/><path fill="#A56533" d="M24.47 22.6h-2.78v2.63h2.78v-2.62ZM24.5 26H21.7v2.82h2.81v-2.81Z"/><path fill="#BA723A" d="M24.15 26.41h-2.1v2.1h2.1v-2.1ZM24.15 22.83h-2.17v2.18h2.17v-2.18Z"/><path fill="#F7E05E" d="M25.04 26.14a.32.32 0 1 0 0-.64.32.32 0 0 0 0 .64Z"/><path fill="#A56533" stroke="#8D4133" stroke-linejoin="round" stroke-width=".1" d="M11.87 19.51H3.91v4.16h7.96v-4.16Z"/><path stroke="#8D4133" stroke-linejoin="round" stroke-width=".1" d="M11.58 19.92H4.35v3.4h7.23v-3.4Z"/><path fill="#568CBB" stroke="#8D4133" stroke-miterlimit="10" stroke-width=".1" d="M5.95 20.17H4.61v2.96h1.34v-2.96Z"/><path fill="#65A6DF" stroke="#8D4133" stroke-miterlimit="10" stroke-width=".1" d="M11.32 20.17H9.98v2.96h1.34v-2.96Z"/><path fill="#49211A" stroke="#8D4133" stroke-miterlimit="10" stroke-width=".1" d="M9.09 20.07H6.74v3.05H9.1v-3.05Z"/><path stroke="#8D4133" stroke-linejoin="round" stroke-width=".1" d="M6.34 20.07v3.06M9.47 20.07v3.06"/><path fill="#A56533" stroke="#8D4133" stroke-linejoin="round" stroke-width=".1" d="M42.97 19.51h-7.96v4.16h7.96v-4.16Z"/><path stroke="#8D4133" stroke-linejoin="round" stroke-width=".1" d="M42.68 19.92h-7.23v3.4h7.23v-3.4Z"/><path fill="#568CBB" stroke="#8D4133" stroke-miterlimit="10" stroke-width=".1" d="M37.05 20.17H35.7v2.96h1.34v-2.96Z"/><path fill="#65A6DF" stroke="#8D4133" stroke-miterlimit="10" stroke-width=".1" d="M42.41 20.17h-1.33v2.96h1.33v-2.96Z"/><path fill="#49211A" stroke="#8D4133" stroke-miterlimit="10" stroke-width=".1" d="M40.18 20.07h-2.34v3.05h2.34v-3.05Z"/><path stroke="#8D4133" stroke-linejoin="round" stroke-width=".1" d="M37.44 20.07v3.06M40.57 20.07v3.06"/><path fill="#A56533" stroke="#8D4133" stroke-linejoin="round" stroke-width=".11" d="M32.46 21.18h-4.31v4.72h4.3v-4.72Z"/><path fill="#568CBB" stroke="#8D4133" stroke-miterlimit="10" stroke-width=".1" d="M30 21.7h-1.47v3.75h1.48V21.7Z"/><path fill="#65A6DF" stroke="#8D4133" stroke-miterlimit="10" stroke-width=".1" d="M32.1 21.7h-1.36v3.75h1.37V21.7Z"/><path stroke="#8D4133" stroke-linejoin="round" stroke-width=".1" d="M30.39 21.6v3.96"/></svg>
