<svg xmlns="http://www.w3.org/2000/svg" width="50" height="33" fill="none"><path fill="#B6503A" d="M38.57 1.32h-3.76a.07.07 0 0 0-.07.07v4.78c0 .04.03.07.07.07h3.76c.04 0 .08-.03.08-.07V1.39a.07.07 0 0 0-.08-.07Z"/><path fill="#6F3022" d="M38.57 1.4v4.78h-3.76V1.39h3.76Zm0-.16h-3.76a.15.15 0 0 0-.14.15v4.79c0 .08.06.14.14.14h3.76c.09 0 .15-.06.15-.14V1.39a.15.15 0 0 0-.15-.15Z"/><path fill="#B6503A" d="M39.1.07H34a.07.07 0 0 0-.07.08v1.4c0 .05.03.08.07.08h5.09c.04 0 .07-.03.07-.07V.15a.07.07 0 0 0-.07-.08Z"/><path fill="#6F3022" d="M39.1.15v1.4H34V.16h5.09Zm0-.15H34a.15.15 0 0 0-.15.15v1.4c0 .1.07.16.15.16h5.09c.08 0 .15-.07.15-.15V.15A.15.15 0 0 0 39.1 0Z"/><path stroke="#D79F74" stroke-miterlimit="10" stroke-width=".16" d="M34.81 2.04h3.76M34.81 2.93h3.76M34.81 3.69h3.76M34.81 4.49h3.76M34.81 5.25h3.76M35.52 2.04v.9M37.48 2.04v.93M36.34 2.93v.76M38.2 2.93v.76M35.48 3.69v.8M37.58 3.65v.84M36.13 4.49v.76M38.14 4.49v.76M34.08.86h5.02M34.93.15v.67M36.08.86v.7M37.42.15v.67M38.37.86v.7"/><path fill="#B78F56" stroke="#886D22" stroke-linejoin="round" stroke-width=".23" d="M48.02 23.06c0 .3-.12.6-.36.82l.04.03a1 1 0 0 1-.04 1.46l.06.07a1.45 1.45 0 0 1-.06 1.82l.1.1c.14.17.22.37.22.57 0 .25-.11.49-.32.66h.01c.22.2.33.48.33.74 0 .27-.1.56-.34.75.4.37.42 1 .03 1.38l-.03.03H2.22V17.01h45.44l.11.15a1.28 1.28 0 0 1-.12 1.67c.46.56.48 1.35.05 1.93l-.05.06.04.05c.19.18.27.42.27.66 0 .26-.1.52-.32.7l.1.12c.18.22.26.47.26.71h.02Z"/><path fill="#CCB16D" stroke="#886D22" stroke-miterlimit="10" stroke-width=".16" d="M46.23 18.8a.92.92 0 1 0 0-1.84.92.92 0 0 0 0 1.85ZM46.23 20.74a.92.92 0 1 0 0-1.84.92.92 0 0 0 0 1.84Z"/><path fill="#CCB16D" stroke="#886D22" stroke-miterlimit="10" stroke-width=".16" d="M46.25 22.26a.77.77 0 1 0 0-1.55.77.77 0 0 0 0 1.55ZM46.25 23.88a.77.77 0 1 0 0-1.54.77.77 0 0 0 0 1.54Z"/><path fill="#CCB16D" stroke="#886D22" stroke-miterlimit="10" stroke-width=".16" d="M46.23 25.39a.77.77 0 1 0 0-1.53.77.77 0 0 0 0 1.53ZM46.23 27.07c.47 0 .84-.35.84-.8 0-.44-.37-.8-.84-.8a.82.82 0 0 0-.83.8c0 .45.37.8.83.8ZM46.3 28.54a.72.72 0 1 0 0-1.44.72.72 0 0 0 0 1.44ZM46.23 30.12a.77.77 0 1 0 0-1.53.77.77 0 0 0 0 1.53Z"/><path fill="#CCB16D" stroke="#886D22" stroke-miterlimit="10" stroke-width=".16" d="M46.18 31.5a.7.7 0 1 0 0-1.4.7.7 0 0 0 0 1.4Z"/><path fill="#B6503A" stroke="#6F3022" stroke-linejoin="round" stroke-width=".16" d="M1.02 17.39 6.7 4.74h36.5L49 17.18s-.1.67-.81.69a2.47 2.47 0 0 1-1.33-.43s-.36.43-1.09.43c-.72-.01-1.3-.44-1.3-.44s-.26.45-1.05.44c-.78-.02-1.28-.43-1.28-.43s-.42.4-1.13.43c-.71.01-1.09-.38-1.09-.38s-.21.4-1.07.38c-.86-.02-1.2-.4-1.2-.4s-.58.45-1.47.4c-.12 0-1.33-.48-1.33-.48s-1.04.43-1.63.42c-.53 0-1.68-.5-1.68-.5s-1 .47-1.52.46c-.44 0-1.33-.59-1.33-.59s-.95.57-1.42.57c-.42 0-1.28-.55-1.28-.55l-1.36.53-12.03-.14s-.69.31-1.31.28a4.02 4.02 0 0 1-1.33-.36s-.36.38-1.13.36c-.78-.01-1.2-.36-1.2-.36s-.32.36-1.1.36c-.8 0-1.09-.42-1.09-.42s-.43.43-1.25.42c-.82 0-1.03-.36-1.03-.36s-.63.3-1.24.28c-.6 0-.92-.4-.92-.4h.02Z"/><path stroke="#6F3022" stroke-linejoin="round" stroke-width=".16" d="M9.9 10.96s.02.45.69.49c.66.04 1.21-.49 1.21-.49s.25.37.82.35c.56-.02 1.34-.35 1.34-.35M14.69 7.51s.02.45.68.5c.67.03 1.22-.5 1.22-.5s.25.37.8.35c.57-.02 1.36-.35 1.36-.35M4.65 9.31s-.02.2.71.22c.73.03 1-.22 1-.22s.14.33.72.36c.58.03 1.18-.36 1.18-.36s.1.38.79.37c.69-.01 1.35-.37 1.35-.37M10.68 15.17s-.43.46-1.09.44c-.65-.02-1-.44-1-.44s-.46.51-1.25.5c-.78 0-.92-.55-.92-.55s-.65.51-1.37.5c-.72 0-.93-.57-.93-.57s-.43.7-1.14.62c-.7-.08-.92-.62-.92-.62M16.93 5.84c0 .05.12.4.7.4.56 0 1.04-.33 1.04-.33s.3.33.77.32c.47 0 .95-.37.95-.37s.42.45.88.43c.46-.02.88-.4.88-.4M41.38 8.93s-.27.58-.85.64c-.58.05-.9-.55-.9-.55s-.44.53-1.02.55c-.58.02-1.1-.4-1.1-.4s-.24.38-.95.4c-.71.02-.98-.4-.98-.4M47.9 14.82s-.06.87-.79.86c-.73 0-1.35-.48-1.35-.48s-.08.3-.66.32c-.58.02-1.45-.47-1.45-.47s-.34.53-.97.47c-.64-.05-1.38-.56-1.38-.56M31.28 5.85s.19.42.78.34c.59-.07.86-.34.86-.34s.4.34.89.34c.49.01 1-.34 1-.34s.36.38.97.34c.6-.03.8-.34.8-.34M31.58 9.26s-.32.35-.88.32c-.56-.03-.98-.5-.98-.5s-.45.34-.86.32M40.19 10.99s.59.53 1.11.47c.53-.07.77-.47.77-.47s.56.37 1.17.32c.6-.05.5-.32.5-.32s.55.41 1.26.32c.7-.1 1.02-.5 1.02-.5M40.25 5.85s.35.4.95.35c.6-.04.77-.47.77-.47s.4.53 1.04.47c.63-.05.66-.47.66-.47M7.14 6.88s.02.45.68.49c.67.03 1.22-.5 1.22-.5s.25.38.81.36c.56-.02 1.35-.35 1.35-.35M7.72 10.96l-1.05 3.59M11.4 12.12l-.47 2.55M13.45 5.47 12.4 9.49M9.03 6.88l.6-1.76M4.13 15.05l1.03-2.93M43.75 10.99l-.8-3.24M39.31 15.68l-.96-4.22"/><path stroke="#6F3022" stroke-linejoin="round" stroke-width=".15" d="M36.01 12.12s-.27.53-.85.58c-.58.06-.9-.5-.9-.5s-.43.48-1.01.5c-.58.02-1.11-.36-1.11-.36s-.24.34-.95.36c-.71.02-.98-.36-.98-.36"/><path stroke="#6F3022" stroke-linejoin="round" stroke-width=".16" d="M27.4 14.99s.19.41.78.34c.59-.07.86-.34.86-.34s.4.33.89.34c.49 0 1-.34 1-.34s.36.38.97.34c.6-.04.8-.34.8-.34M22.92 10.56s.02.46.68.5c.67.03 1.22-.5 1.22-.5s.25.37.81.35c.56-.01 1.35-.35 1.35-.35"/><path stroke="#6F3022" stroke-linejoin="round" stroke-width=".15" d="M38.27 15.59s-.43.49-1.01.5c-.58.02-1.11-.35-1.11-.35s-.24.34-.95.36c-.71.01-.98-.36-.98-.36"/><path stroke="#886D22" stroke-linejoin="round" stroke-width=".16" d="M47.67 23.88H2.22v1.49h45.45M47.67 31.5H2.22v-1.41h45.45M47.67 28.59H2.22v-1.33h45.45M47.67 18.84H2.22M47.67 20.83l-45.45-.37v1.77h45.45"/><path fill="#CCB16D" stroke="#886D22" stroke-miterlimit="10" stroke-width=".22" d="M25.5 17.52H3.4v14.63h22.1V17.52Z"/><path stroke="#886D22" stroke-linejoin="round" stroke-width=".22" d="M3.4 18.53h22.1v1.93L3.4 20.1v1.71h22.1v1.59H3.4v1.44h22.1v1.82H3.4v1.28h22.1v1.45H3.4v1.38h22.1"/><path fill="#E2E2E3" stroke="#7A7A7A" stroke-linejoin="round" stroke-width=".23" d="M2.59 17.52v-.97l11.9-9.49 11.92 9.3v1.16H2.59Z"/><path fill="#E2C57A" stroke="#886D22" stroke-linejoin="round" stroke-width=".22" d="M14.45 8.24 2.59 17.52H26.4L14.45 8.24Z"/><path stroke="#886D22" stroke-linejoin="round" stroke-width=".11" d="M4.35 16.15v1.37h1.83v-2.86l2.01-1.52v4.38h1.83v-5.8l1.95-1.54v7.34h1.51V9l.97-.76 1.02.8v8.48h1.72l.13-7.06 1.95 1.52v5.54h1.92l-.1-4.13 2.07 1.6v2.53h1.79V16.4"/><path fill="#8D4132" stroke="#57271E" stroke-linejoin="round" stroke-width=".23" d="M2.59 16.55v-.96l11.9-9.3 11.92 9.03v1.03L14.5 7.06 2.59 16.55Z"/><path fill="#A56533" stroke="#8D4133" stroke-linejoin="round" stroke-width=".11" d="M18.58 12.46h-8.2v4.28h8.2v-4.28Z"/><path stroke="#8D4133" stroke-linejoin="round" stroke-width=".11" d="M18.28 12.88h-7.44v3.51h7.44v-3.51Z"/><path fill="#65A6DF" stroke="#8D4133" stroke-miterlimit="10" stroke-width=".11" d="M12.48 13.14H11.1v3.04h1.38v-3.04ZM18 13.14h-1.38v3.04H18v-3.04Z"/><path fill="#49211A" stroke="#8D4133" stroke-miterlimit="10" stroke-width=".11" d="M15.71 13.03H13.3v3.15h2.41v-3.15Z"/><path stroke="#8D4133" stroke-linejoin="round" stroke-width=".11" d="M12.87 13.03v3.15M16.1 13.03v3.15"/><path fill="#A56533" stroke="#8D4133" stroke-linejoin="round" stroke-width=".11" d="M34.18 21.83h-4.44v4.86h4.44v-4.86Z"/><path fill="#65A6DF" stroke="#8D4133" stroke-miterlimit="10" stroke-width=".11" d="M31.65 22.36h-1.52v3.86h1.52v-3.86ZM33.82 22.36h-1.4v3.86h1.4v-3.86Z"/><path stroke="#8D4133" stroke-linejoin="round" stroke-width=".11" d="M32.04 22.24v4.1"/><path fill="#A56533" stroke="#8D4133" stroke-linejoin="round" stroke-width=".11" d="M21.98 21.81h-6.26v10.34h6.26V21.81Z"/><path fill="#BA723A" d="M21.25 22.8h-4.63v9.35h4.63v-9.34Z"/><path stroke="#8D4133" stroke-linejoin="round" stroke-width=".11" d="M16.21 31.37v-8.86h5.35v8.86"/><path fill="#A56533" d="M20.16 23.77h-2.85v2.71h2.85v-2.7ZM20.21 27.28h-2.9v2.9h2.9v-2.9Z"/><path fill="#BA723A" d="M19.84 27.7h-2.16v2.16h2.16v-2.17ZM19.84 24.01h-2.23v2.23h2.23v-2.23Z"/><path fill="#F7E05E" d="M20.75 27.4a.33.33 0 1 0 0-.66.33.33 0 0 0 0 .67Z"/><path fill="#A56533" stroke="#8D4133" stroke-linejoin="round" stroke-width=".11" d="M13.88 24.25h-8.5v4.44h8.5v-4.44Z"/><path stroke="#8D4133" stroke-linejoin="round" stroke-width=".11" d="M13.56 24.7h-7.7v3.63h7.7V24.7Z"/><path fill="#568CBB" stroke="#8D4133" stroke-miterlimit="10" stroke-width=".11" d="M7.56 24.95H6.13v3.16h1.43v-3.16Z"/><path fill="#65A6DF" stroke="#8D4133" stroke-miterlimit="10" stroke-width=".11" d="M13.29 24.95h-1.43v3.16h1.43v-3.16Z"/><path fill="#49211A" stroke="#8D4133" stroke-miterlimit="10" stroke-width=".11" d="M10.91 24.85h-2.5v3.26h2.5v-3.26Z"/><path stroke="#8D4133" stroke-linejoin="round" stroke-width=".11" d="M7.98 24.85v3.26M11.32 24.85v3.26"/><path fill="#A56533" stroke="#8D4133" stroke-linejoin="round" stroke-width=".11" d="M43.75 22.96h-3.5v1.84h3.5v-1.84Z"/><path fill="#65A6DF" stroke="#8D4133" stroke-miterlimit="10" stroke-width=".11" d="M43.4 23.26h-2.76v1.25h2.76v-1.25Z"/></svg>
