<svg xmlns="http://www.w3.org/2000/svg" width="50" height="49" fill="none"><path fill="#B99E59" stroke="#886D22" stroke-linejoin="round" stroke-width=".16" d="M47.57 31.64H3.48v14.29h44.09V31.64Z"/><path fill="#B6503A" d="M10.09 1.48h3.5s.08.04.08.08v5.4s-.04.08-.08.08h-3.5s-.08-.04-.08-.08v-5.4s.04-.08.08-.08Z"/><path fill="#6F3022" d="M13.59 1.56v5.4h-3.5v-5.4h3.5Zm0-.16h-3.5a.16.16 0 0 0-.16.16v5.4c0 .09.07.16.16.16h3.5c.09 0 .16-.07.16-.16v-5.4a.16.16 0 0 0-.16-.16Z"/><path fill="#B6503A" d="M9.35.08h4.73s.08.04.08.08v1.59s-.04.08-.08.08H9.35s-.08-.04-.08-.08V.16s.04-.08.08-.08Z"/><path fill="#6F3022" d="M14.09.16v1.59H9.36V.16h4.73Zm0-.16H9.36a.16.16 0 0 0-.16.16v1.59c0 .09.07.16.16.16h4.73c.09 0 .16-.07.16-.16V.16a.16.16 0 0 0-.16-.16Z"/><path stroke="#D79F74" stroke-miterlimit="10" stroke-width=".16" d="M10.09 2.29h3.5M10.09 3.31h3.5M10.09 4.16h3.5M10.09 5.06h3.5M10.09 5.92h3.5M10.75 2.29v1.02M12.58 2.29v1.06M11.52 3.31v.85M13.25 3.31v.85M10.71 4.16v.9M12.66 4.12v.94M11.32 5.06v.86M13.19 5.06v.86M9.42.96h4.67M10.21.16v.76M11.27.96v.8M12.52.16v.76M13.41.96v.8"/><path fill="#B6503A" d="M31.32 2.23h2.34s.08.04.08.08V7.1s-.04.08-.08.08h-2.34s-.08-.04-.08-.08V2.31s.04-.08.08-.08Z"/><path fill="#6F3022" d="M33.67 2.32v4.79h-2.34V2.32h2.34Zm0-.16h-2.34a.16.16 0 0 0-.16.16v4.79c0 .09.07.16.16.16h2.34c.09 0 .16-.07.16-.16V2.32a.16.16 0 0 0-.16-.16Z"/><path fill="#B6503A" d="M30.83.99H34s.08.04.08.08v1.41s-.04.08-.08.08h-3.17s-.08-.04-.08-.08V1.07s.04-.08.08-.08Z"/><path fill="#6F3022" d="M33.99 1.07v1.41h-3.17V1.07h3.17Zm0-.16h-3.17a.16.16 0 0 0-.16.16v1.41c0 .09.07.16.16.16h3.17c.09 0 .16-.07.16-.16V1.07a.16.16 0 0 0-.16-.16Z"/><path stroke="#D79F74" stroke-miterlimit="10" stroke-width=".16" d="M31.32 2.97h2.35M31.32 3.86h2.35M31.32 4.62h2.35M31.32 5.43h2.35M31.32 6.19h2.35M31.76 2.97v.89M32.98 2.97v.93M32.28 3.86v.76M33.44 3.86v.76M31.74 4.62v.81M33.04 4.58v.85M32.14 5.43v.76M33.39 5.43v.76M30.87 1.78h3.12M31.4 1.07v.68M32.11 1.78v.71M32.95 1.07v.68M33.54 1.78v.71"/><path stroke="#886D22" stroke-linejoin="round" stroke-width=".16" d="M3.48 33.44h44.09v1.97l-44.09-.37v1.75h44.09v1.62H3.48v1.47h44.09v1.86H3.48v1.31h44.09v1.48H3.48v1.41h44.09"/><path fill="#B99E59" stroke="#886D22" stroke-miterlimit="10" stroke-width=".24" d="M45.88 11.19H4.99v12.49h40.89V11.19Z"/><path stroke="#886D22" stroke-linejoin="round" stroke-width=".16" d="M4.99 12.76h40.88v1.72l-40.88-.32v1.53h40.88v1.42H4.99v1.28h40.88v1.63H4.99v1.14h40.88v1.3H4.99v1.23h40.88"/><path fill="#B6503A" stroke="#6F3022" stroke-linejoin="round" stroke-width=".16" d="m3 13.73 3.92-9.34 37.37-.3 4.17 9.49s-.1.51-.77.52c-.67.01-1.26-.32-1.26-.32s-.34.33-1.03.32c-.69-.01-1.24-.33-1.24-.33s-.25.35-.98.33c-.73-.02-1.21-.32-1.21-.32s-.4.31-1.07.32a1.68 1.68 0 0 1-1.03-.28s-.2.3-1.01.28c-.81-.02-1.13-.3-1.13-.3s-.55.34-1.4.3c-.11 0-1.25-.36-1.25-.36s-.99.32-1.55.32c-.49 0-1.59-.39-1.59-.39s-.95.36-1.44.36c-.42 0-1.26-.45-1.26-.45s-.9.43-1.35.43c-.4 0-1.22-.41-1.22-.41l-1.3.4-11.4-.11s-.65.24-1.24.21a5 5 0 0 1-1.26-.28s-.34.29-1.07.28c-.73-.01-1.13-.28-1.13-.28s-.29.28-1.05.28-1.03-.32-1.03-.32-.41.33-1.19.32c-.78-.01-.98-.27-.98-.27s-.59.22-1.17.21a1.28 1.28 0 0 1-.87-.31H3Z"/><path stroke="#6F3022" stroke-linejoin="round" stroke-width=".16" d="M11.43 8.84s.02.34.65.37c.63.03 1.15-.37 1.15-.37s.23.28.77.26c.54-.02 1.28-.26 1.28-.26M15.96 6.21s.02.34.65.37c.63.03 1.15-.37 1.15-.37s.23.28.77.26c.54-.02 1.28-.26 1.28-.26M6.45 7.58s-.02.15.67.17c.69.02.95-.17.95-.17s.13.26.68.28c.55.02 1.12-.28 1.12-.28s.09.29.74.28c.65-.01 1.28-.28 1.28-.28M12.16 12.05s-.41.34-1.03.33c-.62-.01-.95-.33-.95-.33s-.44.39-1.19.38c-.75-.01-.87-.42-.87-.42s-.62.39-1.3.38c-.68-.01-.87-.43-.87-.43s-.41.54-1.08.47c-.67-.07-.87-.47-.87-.47M18.08 4.93s.12.3.65.3.99-.24.99-.24.28.25.73.24c.45-.01.9-.28.9-.28s.4.34.84.32c.44-.02.83-.3.83-.3M41.25 7.29s-.25.44-.8.49c-.55.05-.86-.42-.86-.42s-.41.41-.96.42a2.14 2.14 0 0 1-1.05-.31s-.23.29-.9.3c-.67.01-.92-.3-.92-.3M47.42 11.78s-.05.66-.75.65c-.7-.01-1.28-.37-1.28-.37s-.08.23-.63.25c-.55.02-1.37-.36-1.37-.36s-.32.4-.93.36c-.61-.04-1.3-.43-1.3-.43M31.68 4.95s.18.31.73.26c.55-.05.82-.26.82-.26s.37.26.84.26.94-.26.94-.26.35.28.92.26c.57-.02.75-.26.75-.26M31.96 7.54s-.3.27-.83.25c-.53-.02-.92-.37-.92-.37s-.42.25-.82.24M40.12 8.86s.56.4 1.06.36c.5-.04.73-.36.73-.36s.53.28 1.11.25c.58-.03.48-.25.48-.25s.51.32 1.19.25c.68-.07.97-.39.97-.39M40.18 4.95s.33.3.9.26c.57-.04.72-.35.72-.35s.38.4.99.36c.61-.04.63-.36.63-.36M8.8 5.72s.02.34.65.37c.63.03 1.15-.37 1.15-.37s.23.28.77.26c.54-.02 1.28-.26 1.28-.26M9.35 8.84l-.99 2.73M12.85 9.72l-.46 1.94M14.79 4.66l-1 3.06M10.6 5.72l.57-1.33M5.95 11.96l.98-2.24M43.5 8.86l-.76-2.46M39.3 12.43l-.91-3.21M36.17 9.72s-.25.4-.8.44c-.55.04-.86-.38-.86-.38s-.41.37-.96.38c-.55.01-1.05-.28-1.05-.28s-.23.26-.9.28c-.67.02-.92-.28-.92-.28M28 11.91s.18.31.73.26c.55-.05.82-.26.82-.26s.37.26.84.26.94-.26.94-.26.35.28.92.26c.57-.02.75-.26.75-.26M23.76 8.53s.02.34.65.37c.63.03 1.15-.37 1.15-.37s.23.28.77.26c.54-.02 1.28-.26 1.28-.26M38.3 12.36s-.41.37-.96.38c-.55.01-1.05-.28-1.05-.28s-.23.26-.9.28c-.67.02-.92-.28-.92-.28"/><path fill="#B6503A" stroke="#6F3022" stroke-linejoin="round" stroke-width=".16" d="m1.03 33.37 3.96-9.7h40.89l3.25 9.55s-.1.51-.81.52c-.71.01-1.33-.32-1.33-.32s-.36.33-1.09.32c-.73-.01-1.31-.33-1.31-.33s-.26.35-1.04.33c-.78-.02-1.28-.32-1.28-.32s-.42.31-1.14.32c-.72.01-1.09-.28-1.09-.28s-.21.3-1.07.28c-.86-.02-1.2-.3-1.2-.3s-.58.34-1.48.3c-.12 0-1.33-.36-1.33-.36s-1.04.32-1.64.32c-.52 0-1.68-.39-1.68-.39s-1.01.36-1.52.36c-.44 0-1.33-.45-1.33-.45s-.96.43-1.43.43c-.43 0-1.29-.41-1.29-.41l-1.37.4-12.06-.11s-.68.24-1.31.21a5.43 5.43 0 0 1-1.33-.28s-.36.29-1.14.28c-.78-.01-1.2-.28-1.2-.28s-.31.28-1.11.28-1.09-.32-1.09-.32-.44.33-1.26.32c-.82-.01-1.04-.27-1.04-.27s-.62.22-1.24.21a1.37 1.37 0 0 1-.92-.31h.03Z"/><path stroke="#6F3022" stroke-linejoin="round" stroke-width=".16" d="M9.94 28.48s.02.34.68.37c.66.03 1.22-.37 1.22-.37s.25.28.81.26c.56-.02 1.35-.26 1.35-.26M14.74 25.85s.02.34.68.37c.66.03 1.22-.37 1.22-.37s.25.28.81.26a6.66 6.66 0 0 0 1.35-.26M4.67 27.22s-.02.15.71.17c.73.02 1-.17 1-.17s.13.26.72.28a2.8 2.8 0 0 0 1.18-.28s.09.29.78.28c.69-.01 1.36-.28 1.36-.28M10.72 31.69s-.44.34-1.09.33c-.65-.01-1-.33-1-.33s-.47.39-1.26.38c-.79-.01-.92-.42-.92-.42s-.66.39-1.38.38c-.72-.01-.92-.43-.92-.43s-.43.54-1.14.47c-.71-.07-.92-.47-.92-.47M16.98 24.57s.12.3.69.3 1.05-.24 1.05-.24.3.25.77.24c.47-.01.95-.28.95-.28s.42.34.89.32c.47-.02.87-.3.87-.3M41.49 26.93s-.26.44-.85.49c-.59.05-.91-.42-.91-.42s-.43.41-1.01.42c-.58.01-1.11-.31-1.11-.31s-.24.29-.96.3c-.72.01-.98-.3-.98-.3M48.02 31.42s-.06.66-.79.65c-.73-.01-1.35-.37-1.35-.37s-.08.23-.66.25c-.58.02-1.45-.36-1.45-.36s-.34.4-.98.36c-.64-.04-1.37-.43-1.37-.43M31.37 24.59s.19.31.77.26c.58-.05.87-.26.87-.26s.4.26.88.26 1-.26 1-.26.37.28.98.26c.61-.02.8-.26.8-.26M31.66 27.18s-.32.27-.88.25c-.56-.02-.98-.37-.98-.37s-.45.25-.87.24M40.29 28.5s.59.4 1.12.36c.53-.04.77-.36.77-.36s.56.28 1.18.25c.62-.03.51-.25.51-.25s.54.32 1.26.25 1.02-.39 1.02-.39M40.36 24.59s.35.3.95.26c.6-.04.76-.35.76-.35s.41.4 1.04.36c.63-.04.67-.36.67-.36M7.16 25.37s.02.34.68.37c.66.03 1.22-.37 1.22-.37s.25.28.81.26c.56-.02 1.35-.26 1.35-.26M7.75 28.48 6.7 31.21M11.44 29.36l-.47 1.94M13.5 24.3l-1.06 3.06M9.07 25.37l.6-1.34M4.15 31.6l1.03-2.24M43.87 28.5l-.8-2.46M39.42 32.07l-.96-3.21M36.11 29.36s-.26.4-.85.44c-.59.04-.91-.38-.91-.38s-.43.37-1.01.38c-.58.01-1.11-.28-1.11-.28s-.24.26-.96.28c-.72.02-.98-.28-.98-.28M27.48 31.55s.19.31.77.26c.58-.05.87-.26.87-.26s.4.26.88.26 1-.26 1-.26.37.28.98.26c.61-.02.8-.26.8-.26M22.99 28.17s.02.34.68.37c.66.03 1.22-.37 1.22-.37s.25.28.81.26a6.66 6.66 0 0 0 1.35-.26M38.37 32s-.43.37-1.01.38a2.53 2.53 0 0 1-1.11-.28s-.24.26-.96.28c-.72.02-.98-.28-.98-.28"/><path fill="#A56533" stroke="#8D4133" stroke-linejoin="round" stroke-width=".12" d="M31.58 16.09H19.9v6.1h11.68v-6.1Z"/><path stroke="#8D4133" stroke-linejoin="round" stroke-width=".12" d="M31.14 16.69h-10.6v5h10.6v-5Z"/><path fill="#568CBB" stroke="#8D4133" stroke-miterlimit="10" stroke-width=".12" d="M22.88 17.05h-1.96v4.33h1.96v-4.33Z"/><path fill="#65A6DF" stroke="#8D4133" stroke-miterlimit="10" stroke-width=".12" d="M30.75 17.05h-1.96v4.33h1.96v-4.33Z"/><path fill="#49211A" stroke="#8D4133" stroke-miterlimit="10" stroke-width=".12" d="M27.49 16.91h-3.44v4.48h3.44v-4.48Z"/><path stroke="#8D4133" stroke-linejoin="round" stroke-width=".12" d="M23.45 16.91v4.48M28.05 16.91v4.48"/><path fill="#A56533" stroke="#8D4133" stroke-linejoin="round" stroke-width=".12" d="M13.77 16.05H8.15v6.16h5.62v-6.16Z"/><path fill="#65A6DF" stroke="#8D4133" stroke-miterlimit="10" stroke-width=".11" d="M10.58 16.74H8.65v4.89h1.93v-4.89ZM13.33 16.74h-1.78v4.89h1.78v-4.89Z"/><path stroke="#8D4133" stroke-linejoin="round" stroke-width=".11" d="M11.07 16.59v5.19"/><path fill="#A56533" stroke="#8D4133" stroke-linejoin="round" stroke-width=".12" d="M42.76 16.05h-5.62v6.16h5.62v-6.16Z"/><path fill="#65A6DF" stroke="#8D4133" stroke-miterlimit="10" stroke-width=".11" d="M39.57 16.74h-1.93v4.89h1.93v-4.89ZM42.31 16.74h-1.78v4.89h1.78v-4.89Z"/><path stroke="#8D4133" stroke-linejoin="round" stroke-width=".11" d="M40.06 16.59v5.19"/><path fill="#A56533" stroke="#8D4133" stroke-linejoin="round" stroke-width=".12" d="M12.48 36.61H6.86v6.16h5.62v-6.16Z"/><path fill="#65A6DF" stroke="#8D4133" stroke-miterlimit="10" stroke-width=".11" d="M9.29 37.29H7.36v4.89h1.93v-4.89ZM12.03 37.29h-1.78v4.89h1.78v-4.89Z"/><path stroke="#8D4133" stroke-linejoin="round" stroke-width=".11" d="M9.78 37.14v5.19"/><path fill="#A56533" stroke="#8D4133" stroke-linejoin="round" stroke-width=".12" d="M43.92 36.45H38.3v6.16h5.62v-6.16Z"/><path fill="#65A6DF" stroke="#8D4133" stroke-miterlimit="10" stroke-width=".11" d="M40.73 37.13H38.8v4.89h1.93v-4.89ZM43.47 37.13h-1.78v4.89h1.78v-4.89Z"/><path stroke="#8D4133" stroke-linejoin="round" stroke-width=".11" d="M41.22 36.98v5.19"/><path fill="#D2CC8F" stroke="#807B34" stroke-miterlimit="10" stroke-width=".16" d="M17.43 33.29v8.1h1.51l-.06-8.1h-1.45Z"/><path fill="#9DA5AE" stroke="#5A5F63" stroke-miterlimit="10" stroke-width=".16" d="M19.84 42.12h-3.15v5.14h3.15v-5.14Z"/><path fill="#D0D2D4" stroke="#5A5F63" stroke-miterlimit="10" stroke-width=".16" d="M16.68 41.32h3.15c.18 0 .33.15.33.33v.4c0 .19-.16.35-.35.35h-3.16a.36.36 0 0 1-.36-.36v-.33c0-.21.17-.39.39-.39ZM16.66 47.13h3.14c.2 0 .37.16.37.37v.57h-3.78v-.66c0-.15.12-.28.28-.28h-.01Z"/><path stroke="#F1ECBF" stroke-linecap="round" stroke-miterlimit="10" stroke-width=".16" d="M18.46 33.73v7.04"/><path stroke="#5A5F63" stroke-linecap="round" stroke-miterlimit="10" stroke-width=".16" d="M17.26 42.81v3.77M18.18 42.77v3.73M19.15 42.77l-.03 3.73"/><path fill="#D2CC8F" stroke="#807B34" stroke-miterlimit="10" stroke-width=".16" d="M32.08 33.29v8.1h1.51l-.06-8.1h-1.45Z"/><path fill="#9DA5AE" stroke="#5A5F63" stroke-miterlimit="10" stroke-width=".16" d="M34.49 42.12h-3.15v5.14h3.15v-5.14Z"/><path fill="#D0D2D4" stroke="#5A5F63" stroke-miterlimit="10" stroke-width=".16" d="M31.34 41.32h3.15c.18 0 .33.15.33.33v.4c0 .19-.16.35-.35.35h-3.16a.36.36 0 0 1-.36-.36v-.33c0-.21.17-.39.39-.39ZM31.31 47.13h3.14c.2 0 .37.16.37.37v.57h-3.78v-.66c0-.15.12-.28.28-.28h-.01Z"/><path stroke="#F1ECBF" stroke-linecap="round" stroke-miterlimit="10" stroke-width=".16" d="M33.12 33.73v7.04"/><path stroke="#5A5F63" stroke-linecap="round" stroke-miterlimit="10" stroke-width=".16" d="M31.91 42.81v3.77M32.84 42.77v3.73M33.8 42.77l-.03 3.73"/><path fill="#A56533" stroke="#8D4133" stroke-linejoin="round" stroke-width=".12" d="M25.65 37.27h-3.76v8.7h3.76v-8.7Z"/><path fill="#BA723A" d="M25.2 38.11h-2.77v7.86h2.77v-7.86Z"/><path stroke="#8D4133" stroke-linejoin="round" stroke-width=".12" d="M22.18 45.31v-7.45h3.21v7.45"/><path fill="#A56533" d="M24.55 38.92h-1.71v2.28h1.71v-2.28ZM24.58 41.86h-1.74v2.44h1.74v-2.44Z"/><path fill="#BA723A" d="M24.36 42.22h-1.3v1.82h1.3v-1.82ZM24.36 39.12h-1.34V41h1.34v-1.88Z"/><path fill="#F7E05E" d="M24.91 41.98c.11 0 .2-.13.2-.28 0-.15-.09-.28-.2-.28-.11 0-.2.13-.2.28 0 .15.09.28.2.28Z"/><path fill="#A56533" stroke="#8D4133" stroke-linejoin="round" stroke-width=".12" d="M25.64 45.97h3.76v-8.7h-3.76v8.7Z"/><path fill="#BA723A" d="M26.08 45.97h2.77v-7.86h-2.77v7.86Z"/><path stroke="#8D4133" stroke-linejoin="round" stroke-width=".12" d="M29.1 45.31v-7.45h-3.2v7.45"/><path fill="#A56533" d="M26.73 41.2h1.71v-2.28h-1.71v2.28ZM26.71 44.31h1.74v-2.44h-1.74v2.44Z"/><path fill="#BA723A" d="M26.93 44.04h1.3v-1.82h-1.3v1.82ZM26.93 41h1.34v-1.88h-1.34V41Z"/><path fill="#F7E05E" d="M26.37 41.98c.11 0 .2-.13.2-.28 0-.15-.09-.28-.2-.28-.11 0-.2.13-.2.28 0 .15.09.28.2.28Z"/><path fill="#E2E2E3" stroke="#7A7A7A" stroke-linejoin="round" stroke-width=".34" d="M16.05 33.94v-.76l9.38-7.48 9.38 7.32v.92H16.05Z"/><path fill="#E2C57A" stroke="#886D22" stroke-linejoin="round" stroke-width=".33" d="m25.39 26.63-9.34 7.31h18.76l-9.42-7.31Z"/><path stroke="#886D22" stroke-linejoin="round" stroke-width=".16" d="M17.43 32.86v1.08h1.45v-2.25l1.58-1.2v3.45h1.44v-4.57l1.54-1.21v5.78h1.19v-6.71l.76-.6.8.62v6.69h1.36l.1-5.56 1.54 1.2v4.36h1.51l-.08-3.25 1.63 1.26v1.99h1.41v-.89"/><path fill="#8D4132" stroke="#57271E" stroke-linejoin="round" stroke-width=".34" d="M16.05 33.18v-.76l9.38-7.33 9.38 7.12v.81l-9.38-7.32-9.38 7.48Z"/><path fill="#9DA5AE" stroke="#5A5F63" stroke-miterlimit="10" stroke-width=".16" d="M29.81 45.92h-8.32v.5h8.32v-.5ZM30.46 46.42h-9.4v.57h9.4v-.57Z"/></svg>
