<svg xmlns="http://www.w3.org/2000/svg" width="39" height="39" fill="none"><path fill="#2C71B3" d="M19.07 38.14a19.07 19.07 0 1 0 0-38.14 19.07 19.07 0 0 0 0 38.14Z"/><path fill="#fff" d="M19.07 36.7a17.63 17.63 0 1 0 0-35.26 17.63 17.63 0 0 0 0 35.26Z"/><path fill="#2C71B3" d="M20.16 2.82h-2.07v6.76h2.07V2.82Z"/><path fill="#2C71B3" d="M20.22 8.37h-2.28a.47.47 0 0 0-.47.47v.45c0 .26.21.47.47.47h2.28c.26 0 .47-.21.47-.47v-.45a.47.47 0 0 0-.47-.47ZM26.02 14.21H12.18a.41.41 0 1 0 0 .82h13.84a.41.41 0 1 0 0-.82Z"/><path fill="#2C71B3" d="M12.78 14.37c0-2.72 2.82-4.93 6.31-4.93 3.49 0 6.31 2.21 6.31 4.93M17.53 18.53c0 .83-.4 1.05-.94 1.05-.54 0-.82-.27-.82-1.1 0-.83.82-1.9.82-1.9s.94 1.12.94 1.94v.01Z"/><path stroke="#fff" stroke-linecap="round" stroke-miterlimit="10" stroke-width=".16" d="M16 18.82s.05.46.53.54"/><path fill="#2C71B3" d="M20.66 18.53c0 .83-.4 1.05-.94 1.05-.54 0-.82-.27-.82-1.1 0-.83.82-1.9.82-1.9s.94 1.12.94 1.94v.01Z"/><path stroke="#fff" stroke-linecap="round" stroke-miterlimit="10" stroke-width=".16" d="M19.13 18.82s.05.46.53.54"/><path fill="#2C71B3" d="M24.05 18.53c0 .83-.4 1.05-.94 1.05-.54 0-.82-.27-.82-1.1 0-.83.82-1.9.82-1.9s.94 1.12.94 1.94v.01Z"/><path stroke="#fff" stroke-linecap="round" stroke-miterlimit="10" stroke-width=".16" d="M22.52 18.82s.05.46.53.54"/><path fill="#2C71B3" d="M15.39 22.17c0 .83-.4 1.05-.94 1.05-.54 0-.82-.27-.82-1.1 0-.83.82-1.9.82-1.9s.94 1.12.94 1.94v.01Z"/><path stroke="#fff" stroke-linecap="round" stroke-miterlimit="10" stroke-width=".16" d="M13.86 22.45s.05.46.53.54"/><path fill="#2C71B3" d="M18.95 22.17c0 .83-.4 1.05-.94 1.05-.54 0-.82-.27-.82-1.1 0-.83.82-1.9.82-1.9s.94 1.12.94 1.94v.01Z"/><path stroke="#fff" stroke-linecap="round" stroke-miterlimit="10" stroke-width=".16" d="M17.42 22.45s.05.46.53.54"/><path fill="#2C71B3" d="M22.73 22.17c0 .83-.4 1.05-.94 1.05-.54 0-.82-.27-.82-1.1 0-.83.82-1.9.82-1.9s.94 1.12.94 1.94v.01Z"/><path stroke="#fff" stroke-linecap="round" stroke-miterlimit="10" stroke-width=".16" d="M21.19 22.45s.05.46.53.54"/><path fill="#2C71B3" d="M26.42 21.94c0 .83-.4 1.05-.94 1.05-.54 0-.82-.27-.82-1.1 0-.83.82-1.9.82-1.9s.94 1.12.94 1.94v.01Z"/><path stroke="#fff" stroke-linecap="round" stroke-miterlimit="10" stroke-width=".16" d="M24.89 22.22s.05.46.53.54"/><path fill="#2C71B3" d="M13 26.54c0 .83-.4 1.05-.94 1.05-.54 0-.82-.27-.82-1.1 0-.83.82-1.9.82-1.9s.94 1.12.94 1.94v.01Z"/><path stroke="#fff" stroke-linecap="round" stroke-miterlimit="10" stroke-width=".16" d="M11.47 26.82s.05.46.53.54"/><path fill="#2C71B3" d="M16.88 26.8c0 .83-.4 1.05-.94 1.05-.54 0-.82-.27-.82-1.1 0-.83.82-1.9.82-1.9s.94 1.12.94 1.94v.01Z"/><path stroke="#fff" stroke-linecap="round" stroke-miterlimit="10" stroke-width=".16" d="M15.35 27.09s.05.46.53.54"/><path fill="#2C71B3" d="M20.84 26.8c0 .83-.4 1.05-.94 1.05-.54 0-.82-.27-.82-1.1 0-.83.82-1.9.82-1.9s.94 1.12.94 1.94v.01Z"/><path stroke="#fff" stroke-linecap="round" stroke-miterlimit="10" stroke-width=".16" d="M19.31 27.09s.05.46.53.54"/><path fill="#2C71B3" d="M24.27 26.54c0 .83-.4 1.05-.94 1.05-.54 0-.82-.27-.82-1.1 0-.83.82-1.9.82-1.9s.94 1.12.94 1.94v.01Z"/><path stroke="#fff" stroke-linecap="round" stroke-miterlimit="10" stroke-width=".16" d="M22.74 26.82s.05.46.53.54"/><path fill="#2C71B3" d="M28.01 26.8c0 .83-.4 1.05-.94 1.05-.54 0-.82-.27-.82-1.1 0-.83.82-1.9.82-1.9s.94 1.12.94 1.94v.01Z"/><path stroke="#fff" stroke-linecap="round" stroke-miterlimit="10" stroke-width=".16" d="M26.48 27.09s.05.46.53.54"/></svg>
