<svg xmlns="http://www.w3.org/2000/svg" width="25" height="66" fill="none"><g clip-path="url(#a)"><path stroke="#8C9B7F" stroke-miterlimit="10" stroke-width="2" d="M12.5 64.28c4.29 0 7.77-3.03 7.77-6.78 0-3.75-3.48-6.79-7.78-6.79-4.29 0-7.77 3.04-7.77 6.79s3.48 6.78 7.77 6.78Z"/><path stroke="#8C9B7F" stroke-linecap="round" stroke-linejoin="round" stroke-width="2" d="M23.52 22.7c-2.1 14.37-11.04 23.1-11.04 23.1S2.77 36.6 1.45 22.7C.24 10 1.45 1.2 12.48 1.2c8.35 0 12.88 8.83 11.04 21.52Z"/><path stroke="#8C9B7F" stroke-linecap="round" stroke-miterlimit="10" stroke-width="2" d="M10.98 14.85c.96.23-2.9 10.65.33 16.35 1.58 2.77 4.16-1.72 4.16-1.72"/><path fill="#8C9B7F" d="M11.75 11.46c1.33 0 2.4-.93 2.4-2.1 0-1.15-1.07-2.09-2.4-2.09-1.32 0-2.4.94-2.4 2.1 0 1.16 1.08 2.1 2.4 2.1Z"/></g><defs><clipPath id="a"><path fill="#fff" d="M0 .25h25v64.97H0z"/></clipPath></defs></svg>
