<svg xmlns="http://www.w3.org/2000/svg" width="31" height="63" fill="none"><g fill="#E5EBDA" stroke="#8B9A7D" stroke-linecap="round" stroke-linejoin="round" clip-path="url(#a)"><path d="M15.5.6C2.4.6-.6 11 1.2 23.4 3.2 37 15.5 52 15.5 52S28.2 36.4 30 23.4C31.4 10.9 29 .6 15.5.6Zm0 23.7c-4.2 0-7.7-3-7.7-6.9 0-3.8 3.5-6.9 7.7-6.9s7.7 3.1 7.7 7c0 3.7-3.5 6.8-7.7 6.8ZM15.5 62.4c5.2 0 9.4-1.1 9.4-2.5s-4.2-2.5-9.4-2.5-9.4 1-9.4 2.5c0 1.4 4.2 2.5 9.4 2.5Z"/></g><defs><clipPath id="a"><path fill="#fff" d="M0 0h31v63H0z"/></clipPath></defs></svg>
