<svg xmlns="http://www.w3.org/2000/svg" width="44" height="77" fill="none"><g stroke="#fff" stroke-linecap="round" stroke-linejoin="round" stroke-width="1.3" clip-path="url(#a)"><path d="M37 .7H6.8C3.5.7.8 3.3.8 6.4v64.2c0 3.1 2.7 5.7 6 5.7H37c3.3 0 6-2.6 6-5.7V6.4c0-3.1-2.7-5.7-6-5.7h0Zm-14.8 73a2.6 2.6 0 0 1-2.6-2.5c0-1.4 1.1-2.5 2.6-2.5s2.6 1.1 2.6 2.5-1.1 2.5-2.6 2.5ZM39.4 63c0 1.8-1.5 3.3-3.4 3.3H8.4A3.3 3.3 0 0 1 5 62.9v-53C5 8 6.6 6.6 8.4 6.6H36c1.8 0 3.4 1.5 3.4 3.3v53h0ZM15 4h15"/></g><defs><clipPath id="a"><path fill="#fff" d="M.1 0h43.6v77H.1z"/></clipPath></defs></svg>
