<svg xmlns="http://www.w3.org/2000/svg" width="60" height="59" fill="none"><g clip-path="url(#a)"><path stroke="#8C9B7F" stroke-miterlimit="10" stroke-width="2" d="M52.3 1.6H7.7a6.1 6.1 0 0 0-6 6.1V51c0 3.4 2.7 6.1 6 6.1h44.6c3.3 0 6-2.7 6-6V7.6c0-3.3-2.7-6-6-6Z"/><path stroke="#8C9B7F" stroke-linejoin="round" stroke-width="2" d="M48.4 29A17.9 17.9 0 0 1 22 44.6c-1.7-1-9.7 2.1-9.7 2.1s3.4-7.8 2.7-9.1a17.9 17.9 0 1 1 33.5-8.8Z"/><path fill="#8C9B7F" d="M24.6 27s2 3.4 3.2 4.4c1.3 1 4 2.5 4.6 2.6.5 0 2-1.6 2.6-2.4.3-.2.6-.3 1-.2l4.4 2.1c.4.2.6.5.6.9 0 .6 0 1.5-.5 2.2-.6 1-2.7 2.6-4.2 2.6s-6-1-8.4-3c-2.4-1.8-6-5.5-7-7.3-1-1.8-1.9-3.7-1.9-5 0-1.5.6-3.4 1.7-4.3 1.1-.9 1.7-1 2.7-.9l.4.1c.3.1.6.3.7.6l1.6 4c.2.4.2 1 0 1.5l-.6 1-.9 1Z"/></g><defs><clipPath id="a"><path fill="#fff" d="M0 0h60v58.7H0z"/></clipPath></defs></svg>
