<svg xmlns="http://www.w3.org/2000/svg" width="49" height="37" fill="none"><path fill="#BECEDD" stroke="#38445F" stroke-miterlimit="10" stroke-width=".33" d="M47.27 16.52H2.21v19.39h45.06V16.52Z"/><path fill="#E2E2E3" stroke="#7A7A7A" stroke-linejoin="round" stroke-width=".36" d="M1 16.52v-1.45L24.83 1l23.82 13.78v1.74H1Z"/><path fill="#BECEDD" stroke="#38445F" stroke-linejoin="round" stroke-width=".35" d="M24.73 2.74 1 16.52h47.65L24.73 2.74Z"/><path fill="#E8FAF2" stroke="#2E2E4D" stroke-linejoin="round" stroke-width=".15" d="M30.82 9H18.66v6.35h12.16V9Z"/><path stroke="#2E2E4D" stroke-linejoin="round" stroke-width=".15" d="M30.37 9.63H19.33v5.21h11.04V9.63Z"/><path fill="#65A6DF" stroke="#2E2E4D" stroke-miterlimit="10" stroke-width=".15" d="M21.77 10.01h-2.04v4.51h2.04v-4.51ZM29.96 10.01h-2.04v4.51h2.04v-4.51Z"/><path fill="#4C3916" stroke="#2E2E4D" stroke-miterlimit="10" stroke-width=".15" d="M26.56 9.86h-3.58v4.66h3.58V9.86Z"/><path stroke="#2E2E4D" stroke-linejoin="round" stroke-width=".15" d="M22.36 9.86v4.66M27.15 9.86v4.66"/><path fill="#E8FAF2" stroke="#2E2E4D" stroke-linejoin="round" stroke-width=".15" d="M13.81 20.57H7.23v7.21h6.58v-7.21Z"/><path fill="#65A6DF" stroke="#2E2E4D" stroke-miterlimit="10" stroke-width=".15" d="M10.07 21.36H7.81v5.72h2.26v-5.72ZM13.27 21.36h-2.08v5.72h2.08v-5.72Z"/><path stroke="#2E2E4D" stroke-linejoin="round" stroke-width=".15" d="M10.64 21.19v6.07"/><path fill="#99834F" d="M28.11 20.57h-7.64v15.34h7.64V20.57Z"/><path fill="#C0A563" d="M27.22 22.04h-5.64v13.87h5.64V22.04Z"/><path stroke="#C0A563" stroke-linejoin="round" stroke-width=".14" d="M21.07 34.75V21.61h6.52v13.14"/><path fill="#99834F" d="M25.91 23.47h-3.49v4.02h3.49v-4.02ZM25.96 28.66h-3.54v4.3h3.54v-4.3Z"/><path fill="#C0A563" d="M25.5 29.29h-2.64v3.21h2.64v-3.21ZM25.51 23.83h-2.73v3.31h2.73v-3.31Z"/><path fill="#F7E05E" d="M26.62 28.87c.22 0 .4-.22.4-.49s-.18-.49-.4-.49c-.22 0-.4.22-.4.49s.18.49.4.49Z"/><path fill="#E8FAF2" stroke="#2E2E4D" stroke-linejoin="round" stroke-width=".15" d="M40.74 20.74h-6.58v7.21h6.58v-7.21Z"/><path fill="#65A6DF" stroke="#2E2E4D" stroke-miterlimit="10" stroke-width=".15" d="M37 21.54h-2.26v5.72H37v-5.72ZM40.2 21.54h-2.08v5.72h2.08v-5.72Z"/><path stroke="#2E2E4D" stroke-linejoin="round" stroke-width=".15" d="M37.57 21.36v6.07"/></svg>
