<svg xmlns="http://www.w3.org/2000/svg" width="273" height="122" fill="none"><path fill="#fff" d="M11.8 52v-1.2l5.4-.5h1.1l.1 1.7h-6.6Zm4 0a168.3 168.3 0 0 0 .2-9.8V29.6a267.3 267.3 0 0 0-.2-9.8h4a168.3 168.3 0 0 0-.1 9.8v12.6a277.5 277.5 0 0 0 .2 9.8h-4.1Zm1.8 0v-1.5h5.7c2 0 3.5-.3 4.6-1 1.2-.6 2-1.5 2.6-2.6.5-1.2.8-2.5.8-4.1 0-1.6-.3-2.9-.8-4-.6-1-1.4-1.9-2.6-2.4-1.1-.6-2.7-1-4.6-1a30 30 0 0 0-5.7.7v-1.6A30 30 0 0 1 24 34c2.5 0 4.6.4 6.3 1.1a8 8 0 0 1 5 7.7c0 1.2-.3 2.4-.8 3.5-.4 1-1 2-2 3a10 10 0 0 1-3.7 2c-1.6.5-3.5.7-5.7.7h-5.5Zm-5.8-31v-1.2h6.6v1.8h-1.2l-5.4-.6Zm20.1 7.4-2.5-8.2 2 1.2H17.7v-1.6h15l.6 8.6h-1.4ZM45 52.6c-1.6 0-3-.5-4.1-1.4-1.2-1-1.7-2.4-1.7-4.2 0-.9.1-1.7.5-2.5.4-.9 1-1.6 2.1-2.3 1-.8 2.6-1.5 4.6-2.1a36.3 36.3 0 0 1 4.3-1.3l2.8-.7v1a240 240 0 0 0-6.1 2 9.5 9.5 0 0 0-3 1.8 4.2 4.2 0 0 0-1.6 3.3c0 1.4.4 2.3 1 3a4 4 0 0 0 2.7.8 6.7 6.7 0 0 0 3.7-1.2c.8-.5 1.7-1.2 2.7-2.2l.5 2H52c-.8 1-1.5 1.7-2.3 2.3-.7.6-1.4 1-2.2 1.2a7 7 0 0 1-2.5.5Zm10.6-.2c-1.3 0-2.2-.3-2.9-1-.7-.8-1-1.9-1-3.2V37a11 11 0 0 0-.5-3.6 3 3 0 0 0-1.5-1.9c-.6-.4-1.4-.6-2.5-.6-.5 0-1.1 0-1.8.2l-2 .6 1.6-1.1-1 4c-.2.6-.5 1.1-.8 1.5-.4.4-.9.5-1.4.5-.6 0-1-.1-1.3-.4-.3-.4-.5-.8-.6-1.4.4-1.6 1.4-3 3-4 1.5-1 3.3-1.4 5.5-1.4 1.6 0 2.8.3 3.8.8s1.7 1.4 2.2 2.5c.5 1.2.8 2.7.8 4.5v10.6c0 1 .1 1.7.4 2 .3.4.6.6 1 .6.5 0 .9 0 1.1-.3a6 6 0 0 0 1-.9l.7.6c-.4.8-1 1.5-1.6 2-.6.4-1.3.6-2.2.6Zm13.2.2a10 10 0 0 1-3.7-.7c-1.1-.4-2-1-2.7-1.9-.6-.8-1-1.7-1.2-2.8l.4-.9.5-.4 1-.2c.4 0 .8.2 1.2.6.3.3.5.8.7 1.5l1 3.7-1.7-1.4c.6.5 1.4.8 2.2 1l2.3.2a6 6 0 0 0 3.9-1.3c1-.8 1.6-2.1 1.6-3.9 0-.8-.2-1.6-.5-2.4-.3-.7-.8-1.3-1.6-1.8-.7-.5-1.7-.7-3-.7h-1.7v-1.4h1.4c1.1 0 2-.2 2.8-.6a4.3 4.3 0 0 0 2.1-3.9c0-1.4-.4-2.5-1.2-3.3-.8-.8-2-1.3-3.5-1.3-1.1 0-2 .1-2.8.4-.7.2-1.3.5-1.8.8l1.3-1.3-1.6 6.3H63l-.4-5.8c1-.5 2-1 3.2-1.2 1.3-.3 2.6-.5 3.8-.5 2.4 0 4.2.5 5.6 1.6a5 5 0 0 1 2 4c0 1-.3 2-.9 2.8a6 6 0 0 1-2.4 2c-1 .4-2.3.7-3.8.8v-.3a11.6 11.6 0 0 1 5.6 1.6 5 5 0 0 1 1.6 1.7 5.3 5.3 0 0 1-.5 5.7c-.7 1-1.7 1.8-3 2.4-1.4.6-3 .9-4.9.9Zm18.7 0c-1.6 0-3-.5-4.2-1.4-1.1-1-1.7-2.4-1.7-4.2 0-.9.2-1.7.6-2.5.4-.9 1-1.6 2-2.3a36.3 36.3 0 0 1 8.9-3.3L96 38v1a240 240 0 0 0-6.2 2 9.5 9.5 0 0 0-3 1.8 4.2 4.2 0 0 0-1.5 3.3c0 1.4.3 2.3 1 3a4 4 0 0 0 2.7.8l1.8-.3c.6-.1 1.2-.4 2-1 .7-.4 1.6-1.1 2.6-2l.5 2h-1.4l-2.3 2.2c-.7.6-1.5 1-2.3 1.2a7 7 0 0 1-2.4.5Zm10.6-.2c-1.3 0-2.3-.3-3-1-.6-.8-1-1.9-1-3.2V37a11 11 0 0 0-.5-3.6 3 3 0 0 0-1.4-1.9c-.6-.4-1.5-.6-2.5-.6-.6 0-1.2 0-1.8.2l-2 .6 1.5-1.1-1 4c-.1.6-.4 1.1-.8 1.5-.3.4-.8.5-1.4.5-.5 0-1-.1-1.3-.4-.3-.4-.4-.8-.5-1.4.4-1.6 1.4-3 2.9-4 1.6-1 3.4-1.4 5.6-1.4 1.5 0 2.8.3 3.7.8 1 .5 1.8 1.4 2.3 2.5.5 1.2.7 2.7.7 4.5v10.6c0 1 .2 1.7.5 2 .2.4.6.6 1 .6.5 0 .8 0 1.1-.3a6 6 0 0 0 1-.9l.6.6c-.4.8-.9 1.5-1.5 2-.6.4-1.3.6-2.2.6Zm26.8.2c-1.8 0-3.5-.4-5-1.3-1.6-.8-2.9-2.1-3.9-3.8a13 13 0 0 1-1.4-6.4c0-2.6.5-4.7 1.4-6.4a10 10 0 0 1 17.7-.1c1 1.7 1.4 3.8 1.4 6.4 0 2.5-.5 4.6-1.4 6.3a10 10 0 0 1-3.8 4 10 10 0 0 1-5 1.3Zm0-1.4c1.3 0 2.5-.4 3.4-1.1 1-.8 1.7-2 2.2-3.5.5-1.6.8-3.4.8-5.6 0-2.3-.3-4.2-.8-5.7a7.2 7.2 0 0 0-2.2-3.4c-1-.8-2-1.2-3.4-1.2s-2.5.4-3.5 1.2c-1 .8-1.7 2-2.2 3.5a18 18 0 0 0-.8 5.7c0 2.2.3 4 .8 5.5a7.5 7.5 0 0 0 2.2 3.5c1 .7 2.1 1.1 3.5 1.1Zm13.4-13.6.5-7.6h19.8l.5 7.6H158l-2.4-7.2 1.8 1h-17.2l1.9-1-2.5 7.2h-1.2Zm4.8 14.4v-1l5-.7h1.2l5 .6V52h-11.2Zm3.7 0 .1-2.8a135 135 0 0 0 .1-7v-2.3a132.4 132.4 0 0 0-.2-10h3.8a162 162 0 0 0-.1 6.6v9a142.4 142.4 0 0 1 .1 6.5h-3.8Zm35.1 0h-21.3l2-1-1.2 8.5H160l-.5-8.8H183l-.5 8.8h-1.2l-1.3-8.5 2 1Zm-6.7 0 .1-2.8a135 135 0 0 0 .1-7v-2.3a132.4 132.4 0 0 0-.2-10h3.9a162 162 0 0 0-.2 6.6v9a2636.1 2636.1 0 0 0 .2 6.5h-3.9Zm-11.4-21v-1h4.7v1.7h-.3l-4.4-.7Zm13.1.7V30h5.5v1l-4.8.7h-.7ZM162 50.8c1-1 1.8-2.3 2.4-3.8a65.6 65.6 0 0 0 3.2-17h1.6a95.5 95.5 0 0 1-2.4 14.9c-.3 1.3-.7 2.5-1.2 3.5-.5 1.1-1 2-1.6 2.7v.5l-2-.8Zm6.6-19.5V30h9.6v1.3h-9.6ZM192.2 52v-1.3h3.8c1.8 0 3-.5 4-1.5.8-1 1.2-2.4 1.2-4s-.4-3-1.3-3.8c-.8-1-2-1.4-3.8-1.4l-2.2.1-2 .4v-1.2a20.3 20.3 0 0 1 5-.7c1.7 0 3.2.2 4.3.8 1.2.6 2 1.3 2.7 2.3.6 1 .9 2 .9 3.3 0 1-.2 1.9-.5 2.7-.4.9-.9 1.6-1.6 2.2-.7.7-1.6 1.2-2.7 1.6-1.1.3-2.4.5-4 .5h-3.8Zm-2.7 0 .1-2.8a135 135 0 0 0 .1-7v-2.3a132.4 132.4 0 0 0-.2-10h3.9a162 162 0 0 0-.2 6.6v9a142.4 142.4 0 0 1 .2 6.5h-3.9Zm19.4 0v-2.8a135 135 0 0 0 .2-7v-2.3a132.4 132.4 0 0 0-.2-10h3.8a162 162 0 0 0-.2 6.6v9a2636.1 2636.1 0 0 0 .2 6.5H209Zm-22.7-21v-1h10.5v1l-4.7.7h-1l-4.8-.7Zm19.4 21v-1l4.7-.7h1.1l4.6.6V52h-10.4Zm0-21v-1H216v1l-4.6.7h-1l-4.8-.7Zm-19.4 21v-1l4.8-.7h.8V52h-5.6Zm32 0v-1l3.4-.5h.8l3.5.5v1h-7.7Zm1.8 0 8.6-11.9.8.7.3.2-4 5.5L222 52h-2Zm10.5 0v-1l4.7-.7h1l4.4.6V52h-10Zm-.8-10.3-.8-.6-.2-.3 3.8-5.4 3.9-5.4h2l-8.7 11.7Zm4.9 10.3-6.7-10.3-7.8-11.7h4.2l6.2 9.6 8.3 12.4h-4.2Zm-16-21v-1h9.7v1l-4.6.7h-1l-4.1-.6Zm13.9 0v-1h7.4v1l-3.3.6h-.8l-3.3-.6ZM248 52.6c-1.6 0-3-.5-4.1-1.4-1.2-1-1.7-2.4-1.7-4.2 0-.9.2-1.7.5-2.5.4-.9 1.1-1.6 2.1-2.3 1-.8 2.6-1.5 4.6-2.1a36.3 36.3 0 0 1 4.3-1.3l2.8-.7v1a240 240 0 0 0-6.1 2 9.5 9.5 0 0 0-3 1.8 4.2 4.2 0 0 0-1.6 3.3c0 1.4.4 2.3 1 3a4 4 0 0 0 2.7.8 6.7 6.7 0 0 0 3.7-1.2c.8-.5 1.7-1.2 2.8-2.2l.4 2h-1.4c-.8 1-1.5 1.7-2.3 2.3-.7.6-1.4 1-2.2 1.2a7 7 0 0 1-2.5.5Zm10.6-.2c-1.3 0-2.2-.3-2.9-1-.7-.8-1-1.9-1-3.2V37a11 11 0 0 0-.5-3.6 3 3 0 0 0-1.5-1.9c-.6-.4-1.4-.6-2.5-.6-.5 0-1.1 0-1.8.2l-2 .6 1.6-1.1-1 4c-.2.6-.5 1.1-.8 1.5-.4.4-.9.5-1.4.5-.6 0-1-.1-1.3-.4-.3-.4-.5-.8-.6-1.4.4-1.6 1.4-3 3-4 1.5-1 3.4-1.4 5.5-1.4 1.6 0 2.8.3 3.8.8s1.7 1.4 2.2 2.5c.5 1.2.8 2.7.8 4.5v10.6c0 1 .1 1.7.4 2 .3.4.7.6 1.1.6.4 0 .8 0 1-.3a6 6 0 0 0 1-.9l.7.6c-.4.8-1 1.5-1.5 2-.7.4-1.4.6-2.3.6ZM11.7 104.1c.2-1 .6-1.7 1.2-2.2.7-.4 1.5-.7 2.3-.7.8 0 1.6.2 2.3.7.7.4 1.5 1.2 2.4 2.3l-2.5 2-.2-1.3c1-.2 1.7-.7 2.3-1.2.6-.6 1.2-1.5 1.7-2.5l1.8-4L28.3 84l4.5-11.4h2.1L24.4 98.3c-.8 1.9-1.6 3.5-2.4 5-.8 1.3-1.7 2.4-2.7 3.2-1 .8-2 1.1-3.3 1.1-1.3 0-2.3-.3-3-1a3.5 3.5 0 0 1-1.3-2.5ZM7.8 74v-1.5h13.8V74l-5.3.7h-3.7L7.8 74Zm20.7 0v-1.5h8.3V74l-3.7.5h-.6l-4-.5ZM22 100.8 9.7 72.5h7.8L25.7 93l-3.7 7.8Zm40.9 4c-2 0-4-.3-5.9-1-1.8-.7-3.5-1.7-5-3a14 14 0 0 1-3.3-5.1 20 20 0 0 1-1.2-7.3c0-3 .4-5.4 1.3-7.5a13.9 13.9 0 0 1 8.5-8.3c1.8-.6 3.7-1 5.7-1 1.5 0 3 .2 4.3.5 1.4.3 2.7.9 4 1.6l.4 7.6h-1.8l-3.2-8 3 .8v1.5a9.4 9.4 0 0 0-6.1-2.3c-1.5 0-2.9.6-4.2 1.6-1.3 1-2.4 2.7-3.2 4.9-.8 2.1-1.2 5-1.2 8.5s.4 6.3 1.1 8.5c.8 2.2 1.9 3.8 3.1 4.8a7 7 0 0 0 4.4 1.5 10.3 10.3 0 0 0 6.4-2.3l-.1 1.5-3 .9 3.1-8.4H72l-.5 8a18.2 18.2 0 0 1-8.5 2Zm23.7 0c-2 0-4-.5-5.6-1.4-1.7-1-3-2.2-4-4-1-1.6-1.4-3.8-1.4-6.2 0-2.7.5-5 1.4-6.7a10.4 10.4 0 0 1 9.5-5.5c2 0 3.6.4 5 1.2 1.3.7 2.4 1.8 3.1 3.2a9.2 9.2 0 0 1 1.2 4.6 12.4 12.4 0 0 1-.3 2.3H78.3v-1.5h8c1.3 0 2.2-.3 2.7-.8.4-.4.7-1.3.7-2.5s-.2-2.1-.5-2.8a3 3 0 0 0-1-1.6c-.5-.3-1-.5-1.6-.5-.8 0-1.4.3-2 .9-.6.5-1 1.5-1.4 2.9-.4 1.4-.5 3.2-.5 5.6 0 2 .3 3.6.8 4.9a7 7 0 0 0 2.5 3 6.9 6.9 0 0 0 6.4.4c.9-.5 1.6-1 2.3-1.8l1 .7c-.6 1.3-1.4 2.3-2.3 3.1-.9.8-1.9 1.4-3 1.8-1.2.4-2.4.6-3.8.6Zm23.2-2.5-7-18h-1v-2.6h6.9l5.3 14-1.3 1 5.5-15h1.8v2.5h-.9l-6.7 18h-2.6Zm9 1.7V94l.1-12.3h6.7a54 54 0 0 0-.2 6.5v9.3a1688.6 1688.6 0 0 0 .2 6.5h-6.9Zm-20.1 0v-1.4l3.1-.6h1l3.2.6v1.4h-7.3Zm17.3 0v-1.4l4.3-.8h3.5l4.1.8v1.4H116ZM98.7 83v-1.3h4.3v2h-.8l-3.5-.6Zm2.7 21V82.4h1.6l.2 11.7v9.9h-1.8Zm19.3-20.2v-2.1h7.2V83l-4 .7h-3.2Zm9.7 20.2v-1.4l4.3-.8h3.7l4 .8v1.4h-12Zm14.8 0v-1.4l4-.8h3.7l4.2.8v1.4h-11.9Zm-12.4 0 .2-3a129.8 129.8 0 0 0 0-7v-2.4a134 134 0 0 0-.2-10h7V104h-7Zm5.4-3-1.3-2h.9l5.8-7.2 5.8-7 1 2.2h-.7l-5.8 7-5.7 7Zm9.7 3V81.7h6.8a104.3 104.3 0 0 0-.3 6.5v9.3a129.8 129.8 0 0 0 .3 6.5h-6.8Zm-17.5-21v-1.3h12V83l-4 .7h-3.7l-4.3-.7Zm14.8 0v-1.3h11.9V83l-4.2.7h-3.7l-4-.7Zm35.8 21.7c-2.4 0-4.4-.5-6.2-1.5-1.7-1-3-2.4-4-4.1-.8-1.8-1.3-4-1.3-6.3 0-2.4.5-4.4 1.5-6.2a10.8 10.8 0 0 1 10-5.6c2.3 0 4.3.5 6 1.4 1.7 1 3 2.4 4 4.2a13 13 0 0 1 1.3 6.2A13 13 0 0 1 191 99c-1 1.7-2.3 3.1-4 4.1-1.7 1-3.7 1.5-6 1.5Zm0-1.6a3 3 0 0 0 2.2-1 7 7 0 0 0 1.4-3.2c.3-1.5.5-3.6.5-6 0-2.6-.2-4.7-.5-6.1a6.7 6.7 0 0 0-1.4-3.2 3 3 0 0 0-2.2-1 3 3 0 0 0-2.3 1 7 7 0 0 0-1.4 3.2c-.3 1.5-.5 3.5-.5 6 0 2.6.2 4.6.5 6.1a7 7 0 0 0 1.4 3.2 3 3 0 0 0 2.3 1Zm22 1.6c-1.6 0-3-.2-4.3-.7a6.5 6.5 0 0 1-2.7-2c-.7-.9-1.1-1.9-1.2-3l.5-1.1c.3-.3.6-.6 1-.7.3-.2.7-.3 1-.3.8 0 1.4.3 2 .7.4.5.8 1.3 1 2.5l.6 3.5-2.2-1.4c.7.4 1.4.7 2 .8l1.6.1c1.6 0 2.8-.4 3.6-1.3a5 5 0 0 0 1.3-3.6 6 6 0 0 0-.4-2.5c-.3-.7-.8-1.3-1.5-1.8s-1.6-.7-2.7-.7h-1.8v-1.8h1.5c1.1 0 2-.2 2.7-.6a4 4 0 0 0 1.5-1.7c.3-.7.4-1.5.4-2.2 0-1.4-.3-2.5-1-3.2a4 4 0 0 0-3-1.1c-.9 0-1.6 0-2.1.2-.6.1-1.2.3-1.8.7l1.5-1.4-2.2 6.9h-2l-.3-6.2a17.4 17.4 0 0 1 7.7-1.8c3 0 5.2.5 6.8 1.5 1.7 1 2.5 2.4 2.5 4.3 0 1-.3 2-1 2.8-.7.8-1.6 1.5-3 2-1.3.4-3 .7-5.1.7l.3-.3c1.9 0 3.4.2 4.7.6 1.2.3 2.2.7 3 1.3a4.5 4.5 0 0 1 2 4c0 1.3-.5 2.5-1.4 3.6-.9 1-2.1 1.8-3.7 2.4a18 18 0 0 1-5.8.8Zm24.8 0c-2 0-4-.4-5.6-1.3-1.7-1-3-2.2-4-4-1-1.6-1.5-3.8-1.5-6.2 0-2.7.5-5 1.5-6.7a10.4 10.4 0 0 1 9.4-5.5c2 0 3.7.4 5 1.2 1.4.7 2.5 1.8 3.2 3.2A9.2 9.2 0 0 1 237 90a12.4 12.4 0 0 1-.3 2.3h-17.2v-1.5h8c1.3 0 2.2-.3 2.6-.8.5-.4.8-1.3.8-2.5s-.2-2.1-.5-2.8a3 3 0 0 0-1-1.6c-.5-.3-1-.5-1.7-.5s-1.3.3-2 .9c-.5.5-1 1.5-1.3 2.9-.4 1.4-.5 3.2-.5 5.6 0 2 .2 3.6.8 4.9a7 7 0 0 0 2.5 3 6.9 6.9 0 0 0 6.4.4c.9-.5 1.6-1 2.3-1.8l1 .7c-.6 1.3-1.4 2.3-2.3 3.1-.9.8-2 1.4-3 1.8-1.2.4-2.4.6-3.8.6Zm-5-27.7c-.9 0-1.6-.3-2.3-.8-.6-.5-1-1.3-1-2.2 0-1 .4-1.7 1-2.3.7-.5 1.4-.8 2.2-.8 1 0 1.6.3 2.3.8.6.6 1 1.3 1 2.3 0 1-.4 1.7-1 2.2-.7.5-1.4.8-2.3.8Zm9.7 0c-.8 0-1.5-.3-2.2-.8-.6-.5-1-1.3-1-2.2 0-1 .4-1.7 1-2.3.7-.5 1.4-.8 2.2-.8.9 0 1.6.3 2.2.8.7.6 1 1.3 1 2.3 0 1-.3 1.7-1 2.2-.6.5-1.3.8-2.2.8Zm6.9 38.5v-1.4l4.2-.8h3.8l4.5.8v1.4h-12.5Zm2.4 0a87.8 87.8 0 0 0 .3-10.3V92.1a57.3 57.3 0 0 0-.2-6.6l-2.8-.7v-1.2L248 81l.6.4.1 4 .1.3v22.9a5067.7 5067.7 0 0 0 .2 7h-7.2Zm12.8-10.8c-1 0-1.9-.2-2.7-.5-.8-.4-1.5-.9-2.2-1.6-.7-.7-1.3-1.7-2-2.8h-.6l.3-1.7c.9 1.1 1.6 1.9 2.3 2.4.7.5 1.5.7 2.5.7.8 0 1.6-.3 2.3-.8.7-.7 1.2-1.6 1.6-2.9.4-1.3.7-2.9.7-4.9 0-3-.5-5-1.3-6.3a3.8 3.8 0 0 0-5.1-1.4l-1.6 1.3-1.4 1.6-.3-1.8h.7c.6-1 1.3-2 2-2.7a7.4 7.4 0 0 1 5.5-2.3c1.6 0 3.1.4 4.4 1.3 1.3.8 2.3 2.1 3 3.8.8 1.7 1.2 3.7 1.2 6.2 0 2.6-.4 4.8-1.2 6.7a9.8 9.8 0 0 1-3.3 4.2 8 8 0 0 1-4.8 1.5Z"/></svg>
