<svg xmlns="http://www.w3.org/2000/svg" width="228" height="108" fill="none"><path fill="#000" d="M1.3 96v-1.3l4.4-.5h.9V96H1.3Zm2.8 0a81.7 81.7 0 0 0 0-7.2V80a193 193 0 0 0 0-7.1h4.4a1367.4 1367.4 0 0 0-.2 7v9a5150.8 5150.8 0 0 0 .2 7.2H4Zm2.1 0v-1.5h4c1.2 0 2.3-.2 3-.6.8-.4 1.4-1 1.8-1.8.4-.8.6-1.8.6-3 0-1-.2-2-.5-2.7-.4-.7-1-1.3-1.7-1.7-.8-.4-1.8-.6-3-.6a21.1 21.1 0 0 0-4.2.4V83a31 31 0 0 1 5.1-.4c2 0 3.6.3 4.8.9a6 6 0 0 1 2.8 2.3c.6 1 1 2 1 3.3a7 7 0 0 1-.6 2.6c-.3.8-.8 1.5-1.5 2.2-.7.6-1.7 1.1-2.9 1.5-1.2.4-2.7.6-4.6.6h-4ZM1.3 74v-1.2h5.3v1.7h-1L1.4 74Zm15.1 5L14.8 73l1.8 1.4H6.3v-1.5h11.5l.3 6.3h-1.7Zm10.2 17.5c-1.2 0-2.3-.4-3.1-1a4 4 0 0 1-1.3-3.3c0-.7.2-1.4.5-2a5 5 0 0 1 1.8-1.8c.8-.6 2-1.1 3.7-1.6a147.6 147.6 0 0 1 5.3-1.4v1a852 852 0 0 1-4.3 1.4c-.9.3-1.5.7-2 1a3 3 0 0 0-1 1.4 4 4 0 0 0-.2 1.4c0 .9.3 1.5.7 2 .5.3 1 .5 1.8.5.4 0 .7 0 1-.2.5 0 .9-.3 1.3-.6l1.8-1.3.4 1.6h-1.2c-.5.6-1 1.2-1.6 1.6-.5.5-1 .8-1.6 1-.6.2-1.2.3-2 .3Zm8.3-.1c-1 0-1.9-.3-2.4-.9-.6-.5-1-1.3-1-2.3v-8.4c0-1.2-.1-2-.3-2.6-.2-.6-.5-1-1-1.3-.4-.3-1-.4-1.7-.4l-1.3.1c-.5.1-1 .2-1.6.5l1.6-1.1-.6 2.7c0 .8-.3 1.4-.7 1.8a2 2 0 0 1-1.4.5c-.5 0-.9-.2-1.2-.4-.3-.3-.5-.6-.6-1.1.2-1.4 1-2.4 2.2-3.2a8.8 8.8 0 0 1 4.9-1.2 7 7 0 0 1 3.1.6c.9.4 1.5 1 1.8 2 .4.9.6 2 .6 3.5V93c0 .6.1 1 .3 1.2.2.2.4.4.7.4l.7-.2.6-.6.7.5a4 4 0 0 1-1.4 1.7c-.5.3-1.2.5-2 .5Zm10.5 0c-1.1 0-2.1 0-3-.4a5 5 0 0 1-2-1.5 4 4 0 0 1-1-2.2l.4-.7.6-.5.8-.1c.5 0 .9.2 1.2.5.3.3.5.8.7 1.5l.6 2.6-1.7-1.1c.5.3 1 .5 1.6.6h1.6a4 4 0 0 0 2.7-.8c.7-.6 1-1.6 1-2.7 0-.7 0-1.2-.2-1.7-.2-.6-.6-1-1.1-1.3-.5-.3-1.2-.5-2-.5H44v-1.4h1.3c.8 0 1.4-.2 1.9-.5.5-.2.9-.6 1.1-1.1.3-.5.4-1 .4-1.6 0-1-.3-1.7-.9-2.2-.6-.6-1.4-.8-2.4-.8-.7 0-1.4 0-2 .2-.5 0-1 .3-1.4.6l1.3-1.2-1.1 4.6h-1.7l-.2-4.3A13.1 13.1 0 0 1 46 79c1.9 0 3.4.4 4.5 1.1 1.1.8 1.7 1.9 1.7 3.2 0 .7-.2 1.4-.7 2-.4.6-1 1-1.9 1.4-.8.3-1.8.6-3 .6v-.3c1 0 2 .2 2.7.4l2 1a3.8 3.8 0 0 1 1.4 3c0 1-.3 1.8-1 2.6-.5.7-1.4 1.3-2.5 1.8a11 11 0 0 1-4 .6Zm14.2 0c-1.3 0-2.4-.3-3.2-1a4 4 0 0 1-1.3-3.2c0-.7.2-1.4.5-2a5 5 0 0 1 1.8-1.8c.9-.6 2-1.1 3.7-1.6a147 147 0 0 1 5.4-1.4v1a862 862 0 0 1-4.4 1.4c-.9.3-1.5.7-2 1a3 3 0 0 0-1 1.4 4 4 0 0 0-.2 1.4c0 .9.3 1.5.7 2 .5.3 1 .5 1.8.5.4 0 .8 0 1.1-.2.4 0 .8-.3 1.3-.6l1.7-1.3.4 1.6h-1.2c-.5.6-1 1.2-1.6 1.6-.5.5-1 .8-1.6 1-.6.2-1.2.3-2 .3Zm8.2 0c-1 0-1.8-.3-2.4-.9-.6-.5-1-1.3-1-2.3v-8.4c0-1.2-.1-2-.3-2.6-.2-.6-.5-1-1-1.3-.4-.3-1-.4-1.7-.4l-1.3.1c-.5.1-1 .2-1.6.5l1.6-1.1-.6 2.7c0 .8-.3 1.4-.7 1.8a2 2 0 0 1-1.3.5c-.6 0-1-.2-1.3-.4-.3-.3-.5-.6-.6-1.1.3-1.4 1-2.4 2.2-3.2a8.8 8.8 0 0 1 4.9-1.2 7 7 0 0 1 3.2.6c.8.4 1.4 1 1.7 2 .4.9.6 2 .6 3.5V93c0 .6.1 1 .3 1.2.2.2.5.4.8.4l.6-.2.7-.6.6.5a4 4 0 0 1-1.4 1.7c-.5.3-1.2.5-2 .5Zm20.5 0c-1.5 0-3-.2-4.2-1a7.7 7.7 0 0 1-2.9-2.9c-.7-1.3-1-2.9-1-4.7 0-1.8.3-3.4 1-4.7a8 8 0 0 1 7-4 8 8 0 0 1 7.1 4 9.2 9.2 0 0 1 1.1 4.7c0 1.8-.3 3.4-1 4.7a7.6 7.6 0 0 1-7.1 4Zm0-1.3a3 3 0 0 0 2-.7 5 5 0 0 0 1.4-2.5c.3-1 .5-2.4.5-4 0-1.8-.2-3.2-.5-4.3-.3-1-.7-1.8-1.3-2.3a3 3 0 0 0-2.1-.8 3 3 0 0 0-2.1.8c-.6.5-1 1.3-1.3 2.4a16 16 0 0 0-.5 4.1c0 1.7.2 3 .5 4.1a5 5 0 0 0 1.3 2.5 3 3 0 0 0 2 .7Zm10.3-9.7.3-5.9h15.9l.2 5.9h-1.4l-1.6-5.7 1.6 1.2H100l1.6-1.2-1.6 5.7h-1.4Zm3.7 10.6v-1.2l3.6-.5h1.8l3.6.5V96h-9Zm2.4 0a133.4 133.4 0 0 0 .1-4.8v-6.9a101.3 101.3 0 0 0 0-4.8h4V96h-4Zm27.6 0h-15.9l1.7-1-1.2 6.5h-1.5l-.2-6.9h18.3l-.2 6.9h-1.5l-1.2-6.6 1.7 1.1Zm-5.7 0a51 51 0 0 0 0-4.8v-4.4a102.3 102.3 0 0 0 0-7.3h4.1v2.2l-.1 2.6V94l.1 2.1h-4.1Zm-8.2-15.3v-1.2h3.7v1.8h-.5l-3.2-.6Zm10 .6v-1.8h4.6v1.2l-3.3.6h-1.3ZM117 94.8a14 14 0 0 0 1.8-3 25.6 25.6 0 0 0 2-7.7c.3-1.5.5-3 .5-4.5h1.6a52 52 0 0 1-1.8 11 24.6 24.6 0 0 1-2.1 4.6v.5l-2-1Zm5-13.9v-1.4h6.6V81H122ZM140.2 96v-1.3h3.2c1.2 0 2.1-.3 2.8-1a4 4 0 0 0 1-2.8c0-1.3-.4-2.2-1-2.8-.6-.7-1.5-1-2.8-1a13.5 13.5 0 0 0-3.3.5l.1-1.3a19 19 0 0 1 4.4-.6c1.4 0 2.6.3 3.5.7a4.6 4.6 0 0 1 2.8 4.3c0 .7-.1 1.4-.4 2-.2.7-.7 1.3-1.2 1.8-.6.4-1.4.8-2.3 1-.9.4-2 .5-3.3.5H140Zm-2.3 0 .1-2.1a101.3 101.3 0 0 0 0-5.2v-1.9a102.3 102.3 0 0 0 0-7.3h4.1v2.2l-.1 2.6V94l.1 2.1h-4.2Zm15.4 0 .1-2.1a101.3 101.3 0 0 0 0-5.2v-1.9a102.3 102.3 0 0 0 0-7.3h4.1a36.1 36.1 0 0 0-.1 4.8v6.9a109.6 109.6 0 0 1 .1 4.8h-4.2Zm-17.5-15.3v-1.2h8.4v1.2l-3.3.6H139l-3.4-.6ZM151.1 96v-1.2l3.4-.5h1.7l3.3.5V96h-8.4Zm0-15.3v-1.2h8.4v1.2l-3.3.6h-1.7l-3.4-.6ZM135.7 96v-1.2l3.4-.5h1.1V96h-4.5Zm25.4 0v-1.2l2.7-.4h.8l2.6.5V96h-6.1Zm1 0 7-9.3.9.7-3 4.3-3 4.3h-1.9Zm7.7 0v-1.1l3.7-.7h1.5l3.4.6V96h-8.6Zm.5-7.4-.9-.8 2.9-4.2 2.9-4h1.9l-6.8 9Zm2.5 7.4-4.6-7.3-6-9.2h4.5l4.4 7 6.2 9.5h-4.5Zm-11.5-15.3v-1.2h8.3v1.2l-3.3.5h-1.8l-3.2-.5Zm10.8 0v-1.2h5.8v1.2l-2.6.5h-.7l-2.5-.5Zm12.1 15.8c-1.2 0-2.3-.4-3.2-1a4 4 0 0 1-1.2-3.3c0-.7.1-1.4.5-2a5 5 0 0 1 1.7-1.8c1-.6 2.1-1.1 3.8-1.6a149.6 149.6 0 0 1 5.3-1.4v1a852 852 0 0 1-4.4 1.4l-2 1a3 3 0 0 0-.9 1.4 4 4 0 0 0-.2 1.4c0 .9.2 1.5.7 2 .5.3 1 .5 1.7.5.4 0 .8 0 1.2-.2.3 0 .7-.3 1.2-.6l1.8-1.3.4 1.6h-1.2l-1.6 1.6a5.5 5.5 0 0 1-3.5 1.3Zm8.3-.1c-1 0-1.9-.3-2.5-.9-.6-.5-.9-1.3-1-2.3v-8.4c0-1.2 0-2-.2-2.6-.2-.6-.5-1-1-1.3-.4-.3-1-.4-1.8-.4l-1.3.1c-.4.1-1 .2-1.5.5l1.5-1.1-.5 2.7c-.1.8-.3 1.4-.7 1.8a2 2 0 0 1-1.4.5c-.5 0-1-.2-1.2-.4-.3-.3-.5-.6-.6-1.1.2-1.4 1-2.4 2.2-3.2a8.8 8.8 0 0 1 4.8-1.2 7 7 0 0 1 3.2.6c.8.4 1.4 1 1.8 2 .4.9.6 2 .6 3.5V93c0 .6 0 1 .3 1.2.2.2.4.4.7.4l.7-.2.6-.6.7.5a4 4 0 0 1-1.4 1.7c-.6.3-1.2.5-2 .5ZM4.2 43.9c.2-.8.5-1.4 1-1.7.6-.4 1.2-.6 1.8-.6.7 0 1.4.2 2 .6.6.4 1.2 1 1.9 2L9 45.3l.2-1c.7-.3 1.3-.8 1.7-1.3l1.4-2.2 1.3-3 4.5-11.3 4.2-10.4h2l-9.8 23.3a31 31 0 0 1-1.8 3.7c-.6 1.1-1.3 2-2.1 2.6-.9.6-1.8.9-2.9.9-1 0-1.8-.2-2.4-.7-.6-.5-1-1.2-1-2ZM.5 17.4v-1.3h11.3v1.3L7 18H5l-4.4-.6Zm17.8 0v-1.3h8v1.3L23 18H22l-3.8-.5ZM13 40.7 2.5 16.1h5.3l7.5 19.2-2.4 5.4Zm36.6 4c-1.9 0-3.7-.4-5.3-1a12.5 12.5 0 0 1-7.2-7.3c-.6-1.9-1-4-1-6.3s.4-4.4 1-6.2a13 13 0 0 1 12.6-8.5c1.2 0 2.4.2 3.7.5 1.3.2 2.5.7 3.8 1.5l.3 6.4h-1.8L53.5 17l2.4.6.1 1.7c-1-1-2-1.5-3-1.8-1-.4-2-.5-3-.5-1.5 0-3 .4-4.3 1.4a9.7 9.7 0 0 0-3.2 4.4c-.8 2-1.2 4.4-1.2 7.3 0 3 .4 5.3 1.1 7.3.8 2 1.8 3.4 3.1 4.3 1.3 1 2.8 1.4 4.4 1.4 1 0 2-.1 3.1-.4 1.1-.4 2.2-1 3.2-1.8v1.6l-2.4.6 2-7h1.9l-.4 6.6c-1.1.7-2.3 1.2-3.7 1.5a18 18 0 0 1-4 .5Zm21-.1a10 10 0 0 1-4.8-1.2c-1.4-.8-2.5-2-3.4-3.4-.8-1.5-1.2-3.4-1.2-5.5 0-2.2.4-4 1.3-5.7.9-1.6 2-2.8 3.4-3.6 1.4-.9 3-1.3 4.7-1.3 1.5 0 2.8.3 4 1 1.2.6 2 1.5 2.7 2.7a8 8 0 0 1 1 4 14.4 14.4 0 0 1-.2 2.2H63v-1.4h8.5c1 0 1.7-.2 2-.6.4-.4.6-1 .6-1.8 0-1-.2-2-.5-2.6a3 3 0 0 0-1.3-1.5c-.5-.4-1.1-.5-1.8-.5-.8 0-1.5.2-2.3.8-.7.5-1.2 1.4-1.7 2.6a14.9 14.9 0 0 0 .1 9.3 5.9 5.9 0 0 0 5.5 3.6 6.6 6.6 0 0 0 5.4-2.5l.9.6c-.5 1-1.2 2-2 2.6-.7.7-1.6 1.3-2.5 1.6-1 .4-2 .6-3.3.6Zm21.6-2.2-6.8-16.2h-.6v-1.8h4.5l5.8 14-1 .3 5.8-14.3h1.5v1.8h-.6L94 42.3h-2Zm8.2 1.6v-8.7l.2-10.9h4.4a44 44 0 0 0-.2 5.8v8.1a2306.6 2306.6 0 0 0 .2 5.7h-4.6Zm-19 0v-1.2l3.3-.6h.7l3.1.6V44h-7Zm16.3 0v-1.2l4-.7h1.9l3.9.7V44h-9.8ZM81.4 25.6v-1.2h4.2v1.9H85l-3.6-.7ZM84.2 44V24.8h1.3l.3 10.5V44h-1.6Zm17.6-17.7v-1.9h5.6v1.2l-4 .7h-1.6Zm8.4 17.7v-1.2l4-.7h2l3.9.7V44h-10Zm13.1 0v-1.2l3.8-.7h2l4 .7V44h-9.8Zm-10.6 0 .1-2.5a118.2 118.2 0 0 0 .1-6.2v-2.1a117.2 117.2 0 0 0-.2-8.8h4.6V44h-4.6Zm3.4-2.2-1.2-1.5h.6l5.9-6.8 6-6.8.9 1.6h-.5L122 35l-5.9 6.7Zm10 2.2V24.4h4.5a160 160 0 0 0-.2 5.8v8.1a2306.6 2306.6 0 0 0 .2 5.7H126Zm-16-18.4v-1.2h10v1.2l-3.9.7h-2l-4-.7Zm13.2 0v-1.2h9.9v1.2l-4 .7h-2l-3.9-.7Zm31.3 19a10 10 0 0 1-4.9-1.2c-1.4-.8-2.6-2-3.4-3.6-.9-1.5-1.3-3.4-1.3-5.5 0-2.2.4-4 1.3-5.6a9.4 9.4 0 0 1 8.3-4.8c1.8 0 3.4.4 4.9 1.2 1.4.8 2.6 2 3.4 3.5a11 11 0 0 1 1.3 5.6c0 2.2-.4 4-1.3 5.6a9.3 9.3 0 0 1-8.3 4.8Zm0-1.5c1 0 1.8-.3 2.5-1 .7-.6 1.3-1.5 1.6-2.8.4-1.4.6-3 .6-5 0-2.1-.2-3.8-.6-5a5.8 5.8 0 0 0-1.6-3c-.7-.6-1.5-1-2.5-1s-1.8.4-2.5 1-1.3 1.6-1.6 3c-.4 1.3-.6 3-.6 5s.2 3.7.6 5c.3 1.3.9 2.3 1.6 2.9.7.6 1.5 1 2.5 1Zm19.2 1.5c-1.3 0-2.5-.2-3.5-.6-1-.5-1.8-1-2.4-1.8-.6-.7-1-1.6-1-2.6 0-.3.2-.6.3-.8l.7-.6.9-.1c.5 0 1 .2 1.4.6.3.3.6 1 .8 1.7l.8 3.2-2-1.3a6.4 6.4 0 0 0 3.8.9c1.3 0 2.4-.4 3.3-1.1.8-.8 1.2-2 1.2-3.3 0-.8-.1-1.5-.4-2.1-.3-.7-.7-1.2-1.3-1.6-.6-.4-1.5-.6-2.5-.6h-1.6V33h1.4c1 0 1.7-.2 2.3-.5.6-.4 1-.9 1.4-1.5.3-.6.4-1.2.4-2 0-1-.3-2-1-2.6-.7-.7-1.7-1-2.9-1-.9 0-1.6 0-2.2.2-.6.1-1.1.4-1.7.7l1.4-1.3-1.5 5.6h-1.7l-.3-5.2c.9-.5 2-.8 3-1.1 1.2-.3 2.4-.4 3.6-.4 2.3 0 4.1.4 5.5 1.4a4.3 4.3 0 0 1 1.1 6.1c-.5.7-1.3 1.3-2.3 1.7-1 .4-2.3.6-3.8.7v-.3c1.4 0 2.5.2 3.4.5 1 .3 1.8.6 2.4 1 .6.5 1 1 1.3 1.6.3.7.4 1.3.4 2 0 1.2-.3 2.2-1 3-.7 1-1.7 1.7-3 2.2-1.3.5-2.9.8-4.7.8Zm21.3 0a10 10 0 0 1-5-1.2c-1.3-.8-2.5-2-3.3-3.4-.8-1.5-1.2-3.4-1.2-5.5 0-2.2.4-4 1.3-5.7.8-1.6 2-2.8 3.4-3.6 1.4-.9 3-1.3 4.6-1.3 1.6 0 3 .3 4 1 1.2.6 2.2 1.5 2.8 2.7a8 8 0 0 1 1 4 14.4 14.4 0 0 1-.2 2.2h-15v-1.4h8.4c1 0 1.8-.2 2.1-.6.4-.4.5-1 .5-1.8 0-1-.1-2-.4-2.6a3 3 0 0 0-1.3-1.5c-.5-.4-1.1-.5-1.9-.5-.7 0-1.5.2-2.2.8-.7.5-1.3 1.4-1.7 2.6a14.9 14.9 0 0 0 .1 9.3 5.9 5.9 0 0 0 5.5 3.6 6.6 6.6 0 0 0 5.4-2.5l.9.6c-.6 1-1.2 2-2 2.6-.7.7-1.6 1.3-2.6 1.6-1 .4-2 .6-3.2.6Zm-4.4-24.7c-.6 0-1.2-.2-1.7-.7-.5-.4-.8-1-.8-1.8 0-.7.3-1.3.8-1.7.5-.5 1-.7 1.7-.7s1.3.2 1.8.7c.5.4.8 1 .8 1.7 0 .8-.3 1.4-.8 1.8-.5.5-1 .7-1.8.7Zm8.4 0c-.6 0-1.2-.2-1.7-.7-.5-.4-.8-1-.8-1.8 0-.7.3-1.3.8-1.7.5-.5 1-.7 1.7-.7s1.3.2 1.8.7c.5.4.8 1 .8 1.7 0 .8-.3 1.4-.8 1.8-.5.5-1 .7-1.8.7Zm6.3 34.3v-1.1l4-.7h2.1l4.3.7v1.1h-10.4Zm2.7 0a44.6 44.6 0 0 0 0-6l.1-3v-12a45 45 0 0 0-.1-5.4l-2.9-.6v-1l6.8-2.3.5.4.1 3.4.1.3V48.3a119.8 119.8 0 0 1 .1 6h-4.7Zm10-9.6c-.9 0-1.6-.2-2.4-.4-.7-.3-1.4-.7-2-1.3-.7-.6-1.3-1.4-1.9-2.4h-.7l.4-1.7c.9 1.1 1.7 2 2.5 2.5s1.7.8 2.7.8a4 4 0 0 0 2.4-.9c.8-.6 1.3-1.4 1.8-2.6.4-1.2.6-2.6.6-4.5 0-2.6-.4-4.6-1.3-5.8a4 4 0 0 0-5.3-1.4c-.6.2-1.2.7-1.8 1.2a18 18 0 0 0-1.7 1.8l-.3-1.7h.8c.5-1 1.2-1.7 1.8-2.3.7-.7 1.5-1.2 2.3-1.5a7 7 0 0 1 6.6.7c1 .7 2 1.8 2.7 3.3.7 1.5 1 3.3 1 5.5s-.3 4.1-1.1 5.7a8.8 8.8 0 0 1-3 3.7 7.2 7.2 0 0 1-4.1 1.3Z"/></svg>
