<svg xmlns="http://www.w3.org/2000/svg" width="30" height="31" fill="none"><path fill="#B78F56" stroke="#886D22" stroke-linejoin="round" stroke-width=".22" d="M27.92 30.5H1.96l-.08-.08a1 1 0 0 1-.03-1.44l.11-.11-.12-.12a1 1 0 0 1 .06-1.45l.06-.05-.12-.1a1 1 0 0 1-.05-1.42l.17-.18a1 1 0 0 1 0-1.5l-.37-.48a1 1 0 0 1 .02-1.25l.35-.42-.14-.14a1 1 0 0 1-.04-1.34l.18-.22-.25-.3a1 1 0 0 1 0-1.26l.25-.3-.32-.4a1 1 0 0 1 .02-1.28l.3-.33-.1-.12c-.44-.5-.4-1.26.08-1.72a.68.68 0 0 1-.06-1.13l.06-.05h25.97c.35.3.37.83.03 1.16l-.03.03.34.43c.19.26.21.6.04.88l-.39.65.34.44c.2.26.2.62.03.9l-.36.55.33.43c.2.26.21.62.03.9l-.35.52.29.38a.8.8 0 0 1 0 .96l-.29.36.39.56c.17.25.18.56.04.82l-.43.76.23.27c.25.3.24.73-.03 1.03l-.2.21.26.3c.24.26.26.66.05.95l-.31.45.24.28c.25.27.26.69.03.98l-.27.36.28.38c.22.29.2.7-.04.98l-.24.27Z"/><path stroke="#886D22" stroke-linejoin="round" stroke-width=".31" d="M27.92 20.2H1.96M27.92 18.34H1.96M27.92 27.25H1.96M27.92 25.54H1.96M27.92 28.87H1.96M27.92 21.9H1.96M27.92 24.04H1.96M27.92 14.48H1.96"/><path fill="#B6503A" d="M9.43 3.8h-3.1a.06.06 0 0 0-.06.07V7.8c0 .03.03.06.06.06h3.1c.03 0 .06-.03.06-.06V3.87a.06.06 0 0 0-.06-.07Z"/><path fill="#6F3022" d="M9.43 3.87V7.8h-3.1V3.87h3.1Zm0-.12h-3.1a.11.11 0 0 0-.12.12V7.8c0 .07.05.11.11.11h3.1c.08 0 .12-.05.12-.11V3.87a.11.11 0 0 0-.11-.12Z"/><path fill="#B6503A" d="M9.86 2.79H5.67a.06.06 0 0 0-.06.06v1.16c0 .04.03.06.06.06h4.19c.03 0 .06-.02.06-.06V2.85a.06.06 0 0 0-.06-.06Z"/><path fill="#6F3022" d="M9.86 2.84V4H5.67V2.84h4.2Zm0-.11H5.67a.11.11 0 0 0-.11.11V4c0 .07.05.12.11.12h4.2c.06 0 .11-.05.11-.12V2.84a.11.11 0 0 0-.12-.11Z"/><path stroke="#D79F74" stroke-miterlimit="10" stroke-width=".15" d="M6.33 4.4h3.1M6.33 5.14h3.1M6.33 5.75h3.1M6.33 6.42h3.1M6.33 7.05h3.1M6.91 4.4v.74M8.53 4.4v.76M7.6 5.14v.62M9.13 5.14v.62M6.88 5.75v.67M8.6 5.73v.7M7.41 6.42v.63M9.07 6.42v.63M5.73 3.43h4.13M6.43 2.84v.56M7.38 3.43V4M8.47 2.84v.56M9.26 3.43V4"/><path stroke="#886D22" stroke-linejoin="round" stroke-width=".31" d="m27.92 16.44-25.96-.11"/><path fill="#7A7A7A" stroke="#E2E2E3" stroke-linejoin="round" stroke-width=".32" d="M1 13.3v-1.15L15 1l14 10.92v1.38H1Z"/><path fill="#CCB16D" stroke="#886D22" stroke-miterlimit="10" stroke-width=".15" d="M3.33 16.31a.81.81 0 1 0 0-1.63.81.81 0 0 0 0 1.63ZM3.33 14.56a.81.81 0 1 0 0-1.63.81.81 0 0 0 0 1.63ZM3.33 18.3a.9.9 0 1 0 0-1.78.9.9 0 0 0 0 1.78ZM3.33 20.29a.96.96 0 1 0 0-1.92.96.96 0 0 0 0 1.92ZM3.33 21.98a.81.81 0 1 0 0-1.63.81.81 0 0 0 0 1.63ZM3.28 24.02a1.02 1.02 0 1 0 0-2.04 1.02 1.02 0 0 0 0 2.04Z"/><path fill="#CCB16D" stroke="#886D22" stroke-miterlimit="10" stroke-width=".15" d="M3.33 25.64a.81.81 0 1 0 0-1.63.81.81 0 0 0 0 1.63ZM3.33 27.27a.81.81 0 1 0 0-1.63.81.81 0 0 0 0 1.63ZM3.33 28.95a.81.81 0 1 0 0-1.62.81.81 0 0 0 0 1.62ZM3.33 30.53a.74.74 0 1 0 0-1.48.74.74 0 0 0 0 1.48ZM26.5 16.31a.81.81 0 1 0 0-1.63.81.81 0 0 0 0 1.63ZM26.5 14.56a.81.81 0 1 0 0-1.63.81.81 0 0 0 0 1.63ZM26.5 18.3a.9.9 0 1 0 0-1.78.9.9 0 0 0 0 1.78ZM26.5 20.29a.96.96 0 1 0 0-1.92.96.96 0 0 0 0 1.92ZM26.5 21.98a.81.81 0 1 0 0-1.63.81.81 0 0 0 0 1.63ZM26.45 24.02a1.02 1.02 0 1 0 0-2.04 1.02 1.02 0 0 0 0 2.04Z"/><path fill="#CCB16D" stroke="#886D22" stroke-miterlimit="10" stroke-width=".15" d="M26.5 25.64a.81.81 0 1 0 0-1.63.81.81 0 0 0 0 1.63ZM26.5 27.27a.81.81 0 1 0 0-1.63.81.81 0 0 0 0 1.63ZM26.5 28.95a.81.81 0 1 0 0-1.62.81.81 0 0 0 0 1.62ZM26.5 30.53a.74.74 0 1 0 0-1.48.74.74 0 0 0 0 1.48Z"/><path fill="#CCB16D" stroke="#886D22" stroke-linejoin="round" stroke-width=".31" d="M14.94 2.38 1 13.3h28L14.94 2.38Z"/><path stroke="#886D22" stroke-linejoin="round" stroke-width=".15" d="M3.06 11.69v1.6h2.16V9.94l2.36-1.79v5.16h2.15V6.46l2.3-1.8v8.64h1.77V3.27l1.14-.89 1.2.93v9.99h2.02l.15-8.3 2.3 1.78v6.52h2.26l-.12-4.86 2.43 1.89v2.97h2.1v-1.34"/><path fill="#A56533" stroke="#8D4133" stroke-linejoin="round" stroke-width=".16" d="M12.98 20.14H7.77v5.72h5.21v-5.72Z"/><path fill="#65A6DF" stroke="#8D4133" stroke-miterlimit="10" stroke-width=".15" d="M10.02 20.77h-1.8v4.54h1.8v-4.54ZM12.56 20.77h-1.65v4.54h1.65v-4.54Z"/><path stroke="#8D4133" stroke-linejoin="round" stroke-width=".15" d="M10.47 20.63v4.81"/><path fill="#E2C57A" stroke="#886D22" stroke-linejoin="round" stroke-width=".31" d="M23.54 19.17h-6.69V30.5h6.69V19.17Z"/><path fill="#E2C57A" stroke="#886D22" stroke-linejoin="round" stroke-width=".15" d="M22.7 20.15h-5v10.18h5V20.15Z"/><path fill="#886D22" d="M22.36 24.53c.2 0 .38-.09.38-.2 0-.1-.17-.18-.38-.18-.22 0-.39.08-.39.19 0 .1.17.19.39.19Z"/><path stroke="#886D22" stroke-linejoin="round" stroke-width=".15" d="M18.5 20.15v10.08M19.55 20.15v10.18M20.53 20.15l.1 10.18M21.66 20.15v10.18"/><path fill="#A56533" stroke="#8D4133" stroke-linejoin="round" stroke-width=".16" d="M15.42 11.13a2.08 2.08 0 1 0 0-4.16 2.08 2.08 0 0 0 0 4.16Z"/><path fill="#65A6DF" stroke="#8D4133" stroke-miterlimit="10" stroke-width=".15" d="M15.22 9.3v1.4s-.65-.05-.96-.44a1.83 1.83 0 0 1-.4-.96h1.36ZM15.68 9.3v1.4s.65-.05.96-.44c.28-.36.38-.75.4-.96h-1.36ZM15.68 8.87v-1.4s.65.05.96.44c.28.36.38.75.4.96h-1.36ZM15.22 8.87v-1.4s-.65.05-.96.44c-.29.36-.39.75-.4.96h1.36Z"/></svg>
