<svg xmlns="http://www.w3.org/2000/svg" width="29" height="38" fill="none"><path fill="#D4B561" stroke="#916C00" stroke-miterlimit="10" stroke-width=".23" d="M27.09 12.66H1.92v16.67h25.17V12.66Z"/><path stroke="#916C00" stroke-linejoin="round" stroke-width=".23" d="M1.92 13.81h25.17V16l-25.17-.41v1.95h25.17v1.81H1.92v1.64h25.17v2.08H1.92v1.46h25.17v1.65H1.92v1.57h25.17"/><path fill="#D4B561" stroke="#916C00" stroke-miterlimit="10" stroke-width=".23" d="M27.09 20.99H1.92v16.67h25.17V20.99Z"/><path stroke="#916C00" stroke-linejoin="round" stroke-width=".23" d="M1.92 22.14h25.17v2.19l-25.17-.4v1.95h25.17v1.81H1.92v1.64h25.17v2.07H1.92v1.46h25.17v1.65H1.92v1.57h25.17"/><path fill="#E6E6E7" stroke="#7A7A7A" stroke-linejoin="round" stroke-width=".24" d="M1 13.81V12.7L14.57 1.89l13.57 10.59v1.33H1Z"/><path fill="#EBC96C" stroke="#916C00" stroke-linejoin="round" stroke-width=".23" d="M14.51 3.23 1 13.81h27.14L14.51 3.23Z"/><path stroke="#916C00" stroke-linejoin="round" stroke-width=".12" d="M3 12.24v1.57h2.09v-3.27l2.29-1.73v5h2.08V7.18l2.23-1.74v8.37h1.72V4.09l1.1-.86 1.16.9v9.68h1.96l.15-8.05 2.23 1.73v6.32h2.18l-.11-4.71 2.35 1.83v2.88h2.04v-1.3"/><path fill="#9C3B2C" stroke="#5E241B" stroke-linejoin="round" stroke-width=".24" d="M1 12.7v-1.1L14.57 1l13.57 10.29v1.19L14.57 1.89 1 12.7Z"/><path fill="#B36225" stroke="#9C3B2D" stroke-linejoin="round" stroke-width=".12" d="M19.22 8.04H9.88v4.88h9.34V8.04Z"/><path stroke="#9C3B2D" stroke-linejoin="round" stroke-width=".12" d="M18.87 8.52h-8.48v4h8.48v-4Z"/><path fill="#4FABE8" stroke="#9C3B2D" stroke-miterlimit="10" stroke-width=".12" d="M12.27 8.81H10.7v3.47h1.57V8.81ZM18.56 8.81h-1.57v3.47h1.57V8.81Z"/><path fill="#4F1E17" stroke="#9C3B2D" stroke-miterlimit="10" stroke-width=".12" d="M15.95 8.69H13.2v3.58h2.75V8.69Z"/><path stroke="#9C3B2D" stroke-linejoin="round" stroke-width=".12" d="M12.72 8.69v3.59M16.4 8.69v3.59"/><path fill="#B36225" stroke="#9C3B2D" stroke-linejoin="round" stroke-width=".12" d="M11.58 27.79H6.53v5.54h5.05v-5.54Z"/><path fill="#4FABE8" stroke="#9C3B2D" stroke-miterlimit="10" stroke-width=".12" d="M8.7 28.4H6.97v4.39H8.7V28.4ZM11.17 28.4h-1.6v4.39h1.6V28.4Z"/><path stroke="#9C3B2D" stroke-linejoin="round" stroke-width=".12" d="M9.15 28.27v4.66"/><path fill="#B36225" stroke="#9C3B2D" stroke-linejoin="round" stroke-width=".12" d="M23.08 25.88h-7.13v11.78h7.13V25.88Z"/><path fill="#C96E2A" d="M22.26 27.01h-5.27v10.65h5.27V27.01Z"/><path stroke="#9C3B2D" stroke-linejoin="round" stroke-width=".12" d="M16.51 36.77V26.68h6.09v10.09"/><path fill="#B36225" d="M21.01 28.11h-3.25v3.09h3.25v-3.09ZM21.07 32.1h-3.31v3.31h3.31V32.1Z"/><path fill="#C96E2A" d="M20.65 32.58h-2.47v2.47h2.47v-2.47ZM20.66 28.38h-2.55v2.55h2.55v-2.55Z"/><path fill="#FFE43B" d="M21.69 32.25a.37.37 0 1 0 0-.74.37.37 0 0 0 0 .74Z"/><path fill="#B36225" stroke="#9C3B2D" stroke-linejoin="round" stroke-width=".12" d="M11.48 16.44H6.43v5.54h5.05v-5.54Z"/><path fill="#4FABE8" stroke="#9C3B2D" stroke-miterlimit="10" stroke-width=".12" d="M8.61 17.05H6.88v4.39h1.73v-4.39ZM11.08 17.05h-1.6v4.39h1.6v-4.39Z"/><path stroke="#9C3B2D" stroke-linejoin="round" stroke-width=".12" d="M9.05 16.92v4.66"/><path fill="#B36225" stroke="#9C3B2D" stroke-linejoin="round" stroke-width=".12" d="M22.4 16.44h-5.05v5.54h5.05v-5.54Z"/><path fill="#4FABE8" stroke="#9C3B2D" stroke-miterlimit="10" stroke-width=".12" d="M19.53 17.05H17.8v4.39h1.73v-4.39ZM22 17.05h-1.6v4.39H22v-4.39Z"/><path stroke="#9C3B2D" stroke-linejoin="round" stroke-width=".12" d="M19.97 16.92v4.66"/></svg>
