<svg xmlns="http://www.w3.org/2000/svg" width="32" height="34" fill="none"><path fill="#CCB16D" stroke="#886D22" stroke-miterlimit="10" stroke-width=".29" d="M29.85 15.16H2.03V33.6h27.82V15.16Z"/><path stroke="#886D22" stroke-linejoin="round" stroke-width=".29" d="M2.03 16.43h27.82v2.42L2.03 18.4v2.16h27.82v2H2.03v1.82h27.82v2.29H2.03v1.6h27.82v1.83H2.03v1.75h27.82"/><path fill="#E2E2E3" stroke="#7A7A7A" stroke-linejoin="round" stroke-width=".3" d="M1 15.16v-1.23L16 1.99l15 11.7v1.47H1Z"/><path fill="#E2C57A" stroke="#886D22" stroke-linejoin="round" stroke-width=".29" d="M15.94 3.47 1 15.17h30L15.94 3.46Z"/><path stroke="#886D22" stroke-linejoin="round" stroke-width=".14" d="M3.21 13.43v1.73h2.32v-3.6l2.53-1.93v5.53h2.3V7.83l2.46-1.92v9.25h1.9V4.42l1.22-.95 1.28 1v10.7h2.16l.17-8.9 2.47 1.9v7h2.41l-.13-5.21 2.6 2.01v3.2h2.26v-1.44"/><path fill="#8D4132" stroke="#57271E" stroke-linejoin="round" stroke-width=".3" d="M1 13.93v-1.22L16 1l15 11.38v1.31L16 2 1 13.93Z"/><path fill="#A56533" stroke="#8D4133" stroke-linejoin="round" stroke-width=".14" d="M21.14 8.78H10.81v5.39h10.33v-5.4Z"/><path stroke="#8D4133" stroke-linejoin="round" stroke-width=".14" d="M20.76 9.31h-9.38v4.43h9.38V9.3Z"/><path fill="#65A6DF" stroke="#8D4133" stroke-miterlimit="10" stroke-width=".14" d="M13.45 9.63h-1.73v3.83h1.73V9.63ZM20.41 9.63h-1.73v3.83h1.73V9.63Z"/><path fill="#49211A" stroke="#8D4133" stroke-miterlimit="10" stroke-width=".14" d="M17.52 9.5H14.5v3.97h3.03V9.51Z"/><path stroke="#8D4133" stroke-linejoin="round" stroke-width=".14" d="M13.96 9.5v3.96M18.03 9.5v3.96"/><path fill="#A56533" stroke="#8D4133" stroke-linejoin="round" stroke-width=".15" d="M11.88 21.14H6.29v6.12h5.59v-6.13Z"/><path fill="#65A6DF" stroke="#8D4133" stroke-miterlimit="10" stroke-width=".14" d="M8.7 21.81H6.78v4.87H8.7V21.8ZM11.43 21.81H9.66v4.87h1.77V21.8Z"/><path stroke="#8D4133" stroke-linejoin="round" stroke-width=".14" d="M9.2 21.66v5.16"/><path fill="#A56533" stroke="#8D4133" stroke-linejoin="round" stroke-width=".14" d="M25.42 20.56h-7.88V33.6h7.88V20.56Z"/><path fill="#BA723A" d="M24.5 21.81h-5.82V33.6h5.82V21.81Z"/><path stroke="#8D4133" stroke-linejoin="round" stroke-width=".14" d="M18.16 32.6V21.44h6.73V32.6"/><path fill="#A56533" d="M23.13 23.03h-3.59v3.4h3.6v-3.4ZM23.2 27.44h-3.66v3.66h3.66v-3.66Z"/><path fill="#BA723A" d="M22.74 27.97H20v2.73h2.73v-2.73ZM22.73 23.33h-2.81v2.8h2.8v-2.8Z"/><path fill="#F7E05E" d="M23.88 27.6a.41.41 0 1 0 0-.82.41.41 0 0 0 0 .83Z"/></svg>
