<svg xmlns="http://www.w3.org/2000/svg" width="50" height="48" fill="none"><g clip-path="url(#a)"><path stroke="#fff" stroke-miterlimit="10" stroke-width="2" d="M43.3 1.3H6.4a5 5 0 0 0-5 5v35.4a5 5 0 0 0 5 5h37a5 5 0 0 0 5-5V6.3a5 5 0 0 0-5-5Z"/><path stroke="#fff" stroke-linejoin="round" stroke-width="2" d="M40.2 23.6c0 8.1-6.7 14.6-14.8 14.6-2.6 0-5-.6-7.1-1.7-1.4-.8-8 1.7-8 1.7s2.7-6.4 2.2-7.4a14.4 14.4 0 0 1-2-7.2c0-8 6.7-14.6 14.9-14.6 8.1 0 14.8 6.6 14.8 14.6Z"/><path fill="#fff" d="M20.4 22s1.7 2.8 2.7 3.6c1 .9 3.2 2.1 3.8 2.2.4 0 1.6-1.3 2.2-2 .2-.2.5-.3.7-.1l3.7 1.7c.3.1.5.4.5.7 0 .5 0 1.2-.4 1.8-.5.9-2.3 2.1-3.5 2.1-1.2 0-5-.8-7-2.4-2-1.5-4.9-4.5-5.8-6-.8-1.5-1.5-3-1.5-4.1 0-1.2.5-2.8 1.4-3.5 1-.7 1.4-.9 2.2-.7h.4c.2.1.4.3.5.6l1.4 3.1v1.3l-.5.9-.8.8Z"/></g><defs><clipPath id="a"><path fill="#fff" d="M0 0h49.8v48H0z"/></clipPath></defs></svg>
